<?xml version="1.0" encoding="UTF-8"?>
<svg version="1.1" xmlns="http://www.w3.org/2000/svg" width="500" height="500">
<path d="M0 0 C12.47674333 10.47726523 18.26568364 24.12546913 20.2578125 40.0625 C21.13702395 55.53662151 13.98946102 69.79753299 4 81 C-5.60147125 91.25611701 -18.14012591 96.3959921 -32 98 C-42.7801412 98.18846401 -53.70272065 96.13161638 -63.18359375 90.90625 C-65.06843027 89.96585844 -66.83380995 89.44046264 -68.875 88.9375 C-72 88 -72 88 -74 85 C-74 83.68 -74 82.36 -74 81 C-74.66 81 -75.32 81 -76 81 C-87.63735468 67.71851574 -92.12485557 53.40847904 -91 36 C-89.44036023 25.21358377 -84.69768644 14.61131113 -78 6 C-77.34 6 -76.68 6 -76 6 C-76 5.34 -76 4.68 -76 4 C-75.34 4 -74.68 4 -74 4 C-74 3.34 -74 2.68 -74 2 C-52.08787042 -17.53975335 -22.66638711 -17.46236966 0 0 Z M-59 1 C-57.82606689 0.96221436 -56.65213379 0.92442871 -55.44262695 0.88549805 C-51.02707509 0.76112394 -46.61418866 0.72480943 -42.19702148 0.71313477 C-40.29692816 0.69624862 -38.39687925 0.6564472 -36.49780273 0.59204102 C-19.05807798 0.02709865 -19.05807798 0.02709865 -11.94389343 6.44966125 C-7.50797404 10.99935154 -4.44430129 14.38937337 -4 21 C-1.36 21 1.28 21 4 21 C4.02887814 24.47914941 4.04675687 27.95826831 4.0625 31.4375 C4.07087891 32.43072266 4.07925781 33.42394531 4.08789062 34.44726562 C4.09111328 35.39150391 4.09433594 36.33574219 4.09765625 37.30859375 C4.10289307 38.18314209 4.10812988 39.05769043 4.11352539 39.95874023 C4 42 4 42 3 43 C-0.465 43.495 -0.465 43.495 -4 44 C-4 55.22 -4 66.44 -4 78 C6.94893733 67.05106267 12.08669877 57.92730359 12.375 42.25 C12.3170699 28.45780909 7.56874121 17.88223937 -1.98046875 7.9375 C-12.85554207 -2.1344242 -25.08111848 -5.81075097 -39.7109375 -5.36328125 C-46.23889291 -4.96023057 -54.26330959 -3.73669041 -59 1 Z M-69.625 8.125 C-78.89978396 17.51937287 -83.93229326 29.1599532 -84.0234375 42.40625 C-83.58046732 53.13079124 -80.64017256 61.93543695 -75 71 C-74.67 71 -74.34 71 -74 71 C-73.99191315 70.31761765 -73.98382629 69.63523529 -73.97549438 68.93217468 C-73.8895772 61.8433436 -73.79007931 54.75479631 -73.68261719 47.66625977 C-73.64428421 45.01917275 -73.60943906 42.37203287 -73.578125 39.72485352 C-73.53256855 35.92444944 -73.47455803 32.12441068 -73.4140625 28.32421875 C-73.40251129 27.13664474 -73.39096008 25.94907074 -73.37905884 24.72550964 C-73.35918915 23.62459488 -73.33931946 22.52368011 -73.31884766 21.3894043 C-73.30552399 20.41899704 -73.29220032 19.44858978 -73.2784729 18.44877625 C-73 16 -73 16 -71 13 C-67.875 12.3125 -67.875 12.3125 -65 12 C-64.67 9.36 -64.34 6.72 -64 4 C-66.1648909 4 -68.1932464 6.77975719 -69.625 8.125 Z M-59 6 C-60.42506348 8.85012695 -60.12728307 11.26716247 -60.12939453 14.45336914 C-60.13114685 15.1152977 -60.13289917 15.77722626 -60.13470459 16.45921326 C-60.13911264 18.65122077 -60.13618914 20.84314789 -60.1328125 23.03515625 C-60.13348576 24.55447912 -60.13445597 26.07380189 -60.13571167 27.59312439 C-60.13718716 30.77832057 -60.13503857 33.96348872 -60.13037109 37.14868164 C-60.12466904 41.24020901 -60.12795675 45.33167086 -60.13394356 49.42319584 C-60.13754906 52.5603434 -60.13641072 55.69747531 -60.13381577 58.83462334 C-60.13314672 60.34377487 -60.13397415 61.85292781 -60.13629532 63.36207771 C-60.1388222 65.46676552 -60.13498103 67.57134565 -60.12939453 69.67602539 C-60.12859894 70.87578506 -60.12780334 72.07554474 -60.12698364 73.31166077 C-60.30605607 75.9182627 -60.30605607 75.9182627 -59 77 C-57.43452952 77.09326716 -55.86487228 77.11745582 -54.29663086 77.11352539 C-52.79518776 77.11341209 -52.79518776 77.11341209 -51.26341248 77.11329651 C-50.1748848 77.10813522 -49.08635712 77.10297394 -47.96484375 77.09765625 C-46.85645645 77.0962413 -45.74806915 77.09482635 -44.60609436 77.09336853 C-41.04986931 77.08775033 -37.49370617 77.07519475 -33.9375 77.0625 C-31.53320403 77.05748734 -29.12890708 77.05292403 -26.72460938 77.04882812 C-20.81636294 77.0386239 -14.90825115 77.01905205 -9 77 C-9 66.11 -9 55.22 -9 44 C-14.28 43.67 -19.56 43.34 -25 43 C-25 36.07 -25 29.14 -25 22 C-17.08 21.505 -17.08 21.505 -9 21 C-9 20.34 -9 19.68 -9 19 C-14.94 18.01 -14.94 18.01 -21 17 C-21.33 13.7 -21.66 10.4 -22 7 C-29.65874066 5.75936216 -37.25711646 5.88820642 -45 5.9375 C-46.36067544 5.94252513 -47.72135267 5.94708624 -49.08203125 5.95117188 C-52.38806725 5.96289541 -55.69401001 5.97930573 -59 6 Z M-17 10 C-17 11.32 -17 12.64 -17 14 C-15.68 13.67 -14.36 13.34 -13 13 C-14.32 12.01 -15.64 11.02 -17 10 Z M-68 16 C-68.78105537 20.14166734 -69.12625461 24.05257527 -69.12939453 28.26489258 C-69.13254669 29.48247757 -69.13569885 30.70006256 -69.13894653 31.95454407 C-69.1369223 33.25473984 -69.13489807 34.55493561 -69.1328125 35.89453125 C-69.13348668 37.25119545 -69.13445765 38.60785953 -69.13571167 39.96452332 C-69.13718077 42.79626627 -69.13505781 45.62797754 -69.13037109 48.4597168 C-69.12464691 52.09600471 -69.12797466 55.73221924 -69.13394356 59.36850452 C-69.13754724 62.16422586 -69.13641195 64.95992962 -69.13381577 67.75565147 C-69.13282198 69.75049767 -69.13586482 71.74534454 -69.13894653 73.7401886 C-69.13579437 74.94201279 -69.13264221 76.14383698 -69.12939453 77.38208008 C-69.12820114 78.97709099 -69.12820114 78.97709099 -69.12698364 80.60432434 C-69.27025345 82.95264242 -69.27025345 82.95264242 -68 84 C-66.49581261 84.09311889 -64.98728644 84.11746028 -63.48022461 84.11352539 C-62.51930405 84.11344986 -61.55838348 84.11337433 -60.56834412 84.11329651 C-59.523564 84.10813522 -58.47878387 84.10297394 -57.40234375 84.09765625 C-56.33834854 84.0962413 -55.27435333 84.09482635 -54.17811584 84.09336853 C-50.76454917 84.08775064 -47.351047 84.07519511 -43.9375 84.0625 C-41.62955824 84.05748731 -39.32161545 84.052924 -37.01367188 84.04882812 C-31.34242574 84.0377754 -25.67121747 84.02101987 -20 84 C-20 83.34 -20 82.68 -20 82 C-34.19 81.67 -48.38 81.34 -63 81 C-63.65046672 76.44673298 -64.13489682 72.49018941 -64.20532227 67.97290039 C-64.22526749 66.83224625 -64.24521271 65.6915921 -64.26576233 64.51637268 C-64.28247482 63.30569626 -64.29918732 62.09501984 -64.31640625 60.84765625 C-64.3475779 58.96475136 -64.3475779 58.96475136 -64.37937927 57.04380798 C-64.43348743 53.72800883 -64.48379613 50.41219725 -64.53222656 47.09631348 C-64.5827194 43.70413122 -64.63825952 40.31203188 -64.69335938 36.91992188 C-64.80019787 30.28001423 -64.90202358 23.64004401 -65 17 C-65.99 16.67 -66.98 16.34 -68 16 Z M-21 29 C-21 31.31 -21 33.62 -21 36 C-20.67 36 -20.34 36 -20 36 C-20 33.69 -20 31.38 -20 29 C-20.33 29 -20.66 29 -21 29 Z M-8 31 C-7 34 -7 34 -7 34 Z M-16 82 C-15.67 83.32 -15.34 84.64 -15 86 C-13.02 85.01 -11.04 84.02 -9 83 C-9 82.67 -9 82.34 -9 82 C-11.31 82 -13.62 82 -16 82 Z M-43 89 C-43 89.33 -43 89.66 -43 90 C-37.72 90 -32.44 90 -27 90 C-27 89.67 -27 89.34 -27 89 C-32.28 89 -37.56 89 -43 89 Z " fill="#C3504F" transform="translate(156,210)"/>
<path d="M0 0 C0 0.33 0 0.66 0 1 C-0.62455078 0.98428955 -1.24910156 0.9685791 -1.89257812 0.95239258 C-4.76162417 0.88947956 -7.63052442 0.85083269 -10.5 0.8125 C-11.48226562 0.78736328 -12.46453125 0.76222656 -13.4765625 0.73632812 C-19.76708648 0.67342289 -24.24604776 1.45996703 -30 4 C-31.65672637 4.37966646 -33.32070245 4.73760976 -35 5 C-35.33 5.99 -35.66 6.98 -36 8 C-34.68 8.33 -33.36 8.66 -32 9 C-33.65 9.66 -35.3 10.32 -37 11 C-35.89188965 10.95697754 -34.7837793 10.91395508 -33.64208984 10.86962891 C1.74992934 9.68773988 1.74992934 9.68773988 9.74951172 16.78466797 C13.28359539 20.7685627 15.82973904 23.93587743 16.28515625 29.45703125 C16.14400391 30.71580078 16.14400391 30.71580078 16 32 C18.64 32 21.28 32 24 32 C25.7680198 35.5360396 25.18464913 39.60571255 25.1875 43.5 C25.19974609 44.38042969 25.21199219 45.26085937 25.22460938 46.16796875 C25.22654297 47.00972656 25.22847656 47.85148437 25.23046875 48.71875 C25.23457764 49.49154297 25.23868652 50.26433594 25.24291992 51.06054688 C25 53 25 53 23 55 C20.69 55 18.38 55 16 55 C16 66.22 16 77.44 16 89 C15.67 89 15.34 89 15 89 C15 77.45 15 65.9 15 54 C14.01 54 13.02 54 12 54 C11.505 54.99 11.505 54.99 11 56 C8.35375716 55.85978195 5.70815422 55.71310224 3.0625 55.5625 C1.93038086 55.50352539 1.93038086 55.50352539 0.77539062 55.44335938 C-4.88671875 55.11328125 -4.88671875 55.11328125 -6 54 C-6.09899523 52.45044441 -6.13079524 50.89646327 -6.1328125 49.34375 C-6.13410156 48.40402344 -6.13539063 47.46429688 -6.13671875 46.49609375 C-6.13285156 45.50738281 -6.12898438 44.51867187 -6.125 43.5 C-6.12886719 42.51128906 -6.13273437 41.52257812 -6.13671875 40.50390625 C-6.13542969 39.56417969 -6.13414062 38.62445313 -6.1328125 37.65625 C-6.13168457 36.78806641 -6.13055664 35.91988281 -6.12939453 35.02539062 C-6 33 -6 33 -5 32 C-2.30345146 31.92680379 0.36691458 31.90757463 3.0625 31.9375 C4.20041992 31.94426758 4.20041992 31.94426758 5.36132812 31.95117188 C7.24091871 31.9629932 9.12046899 31.98092922 11 32 C11 31.34 11 30.68 11 30 C10.14535156 29.93941406 9.29070312 29.87882812 8.41015625 29.81640625 C7.30542969 29.73261719 6.20070313 29.64882812 5.0625 29.5625 C3.96035156 29.48128906 2.85820312 29.40007812 1.72265625 29.31640625 C-1 29 -1 29 -2 28 C-2.07205511 26.31391034 -2.08386068 24.62499341 -2.0625 22.9375 C-2.05347656 22.01839844 -2.04445313 21.09929687 -2.03515625 20.15234375 C-2.02355469 19.44207031 -2.01195312 18.73179687 -2 18 C-3.04978027 18.00523682 -4.09956055 18.01047363 -5.18115234 18.01586914 C-9.06867625 18.03394239 -12.95619644 18.04544054 -16.84375 18.05493164 C-18.52767562 18.05996653 -20.21159686 18.06679481 -21.89550781 18.07543945 C-24.31316203 18.08754196 -26.73075856 18.09323668 -29.1484375 18.09765625 C-29.9036972 18.10281754 -30.65895691 18.10797882 -31.43710327 18.11329651 C-36.77225659 18.11387171 -36.77225659 18.11387171 -39 17 C-39 39.11 -39 61.22 -39 84 C-39.33 84 -39.66 84 -40 84 C-40.66 63.54 -41.32 43.08 -42 22 C-42.66 22.66 -43.32 23.32 -44 24 C-46.65537372 24.56520003 -49.29144713 24.73788198 -52 25 C-51.67 24.34 -51.34 23.68 -51 23 C-49.02 23 -47.04 23 -45 23 C-45 20.69 -45 18.38 -45 16 C-54.48232554 24.12770761 -61.18886468 34.59364422 -62.8515625 47.15625 C-63.49236331 59.43264455 -61.3139783 69.47670284 -55 80 C-54.67 62.51 -54.34 45.02 -54 27 C-53.67 27 -53.34 27 -53 27 C-53 45.81 -53 64.62 -53 84 C-53.99 84 -54.98 84 -56 84 C-55.505 85.051875 -55.01 86.10375 -54.5 87.1875 C-53.17220212 90.25452609 -52.69284994 92.62134936 -53 96 C-53.33 94.68 -53.66 93.36 -54 92 C-54.66 92 -55.32 92 -56 92 C-67.63735468 78.71851574 -72.12485557 64.40847904 -71 47 C-69.44036023 36.21358377 -64.69768644 25.61131113 -58 17 C-57.34 17 -56.68 17 -56 17 C-56 16.34 -56 15.68 -56 15 C-55.34 15 -54.68 15 -54 15 C-54 14.34 -54 13.68 -54 13 C-38.68118289 -0.66028376 -19.65454398 -4.77507359 0 0 Z M3 21 C3 22.32 3 23.64 3 25 C4.32 24.67 5.64 24.34 7 24 C5.68 23.01 4.36 22.02 3 21 Z M-1 40 C-1 42.31 -1 44.62 -1 47 C-0.67 47 -0.34 47 0 47 C0 44.69 0 42.38 0 40 C-0.33 40 -0.66 40 -1 40 Z M12 42 C13 45 13 45 13 45 Z " fill="#C34F50" transform="translate(136,199)"/>
<path d="M0 0 C0 0.33 0 0.66 0 1 C-0.62455078 0.98428955 -1.24910156 0.9685791 -1.89257812 0.95239258 C-4.76162417 0.88947956 -7.63052442 0.85083269 -10.5 0.8125 C-11.48226562 0.78736328 -12.46453125 0.76222656 -13.4765625 0.73632812 C-19.76708648 0.67342289 -24.24604776 1.45996703 -30 4 C-31.65672637 4.37966646 -33.32070245 4.73760976 -35 5 C-35.33 5.99 -35.66 6.98 -36 8 C-34.68 8.33 -33.36 8.66 -32 9 C-33.65 9.66 -35.3 10.32 -37 11 C-17.695 11.495 -17.695 11.495 2 12 C2 12.33 2 12.66 2 13 C-12.19 13.33 -26.38 13.66 -41 14 C-40.11785113 16.88214887 -40.11785113 16.88214887 -39 19 C-38.90839663 21.06292985 -38.8824882 23.12888885 -38.88647461 25.19384766 C-38.88655014 26.49504547 -38.88662567 27.79624329 -38.88670349 29.13687134 C-38.89181053 30.56260211 -38.89702653 31.9883325 -38.90234375 33.4140625 C-38.90420853 34.86851961 -38.90563215 36.32297734 -38.90663147 37.7774353 C-38.91045195 41.60792776 -38.92027824 45.43838237 -38.93133545 49.26885986 C-38.94155965 53.17663053 -38.94613126 57.08440731 -38.95117188 60.9921875 C-38.96190092 68.6614756 -38.97897172 76.3307325 -39 84 C-39.33 84 -39.66 84 -40 84 C-40.66 63.54 -41.32 43.08 -42 22 C-42.66 22.66 -43.32 23.32 -44 24 C-46.65537372 24.56520003 -49.29144713 24.73788198 -52 25 C-51.67 24.34 -51.34 23.68 -51 23 C-49.02 23 -47.04 23 -45 23 C-45 20.69 -45 18.38 -45 16 C-54.48232554 24.12770761 -61.18886468 34.59364422 -62.8515625 47.15625 C-63.49236331 59.43264455 -61.3139783 69.47670284 -55 80 C-54.67 62.51 -54.34 45.02 -54 27 C-53.67 27 -53.34 27 -53 27 C-53 45.81 -53 64.62 -53 84 C-53.99 84 -54.98 84 -56 84 C-55.505 85.051875 -55.01 86.10375 -54.5 87.1875 C-53.17220212 90.25452609 -52.69284994 92.62134936 -53 96 C-53.33 94.68 -53.66 93.36 -54 92 C-54.66 92 -55.32 92 -56 92 C-67.63735468 78.71851574 -72.12485557 64.40847904 -71 47 C-69.44036023 36.21358377 -64.69768644 25.61131113 -58 17 C-57.34 17 -56.68 17 -56 17 C-56 16.34 -56 15.68 -56 15 C-55.34 15 -54.68 15 -54 15 C-54 14.34 -54 13.68 -54 13 C-38.68118289 -0.66028376 -19.65454398 -4.77507359 0 0 Z " fill="#D23535" transform="translate(136,199)"/>
<path d="M0 0 C0.99 0 1.98 0 3 0 C3.80629419 23.34178795 4.13946662 46.64470485 4 70 C5.65769409 69.97643433 5.65769409 69.97643433 7.34887695 69.95239258 C11.44694741 69.89811443 15.54498607 69.86365776 19.64331055 69.83520508 C21.41745343 69.82011359 23.19155898 69.79963809 24.96557617 69.77368164 C27.51490487 69.73731359 30.06374059 69.72027762 32.61328125 69.70703125 C33.40712723 69.69154739 34.20097321 69.67606354 35.01887512 69.66011047 C37.26293945 69.65942383 37.26293945 69.65942383 41 70 C41.99 70.99 42.98 71.98 44 73 C29.81 73 15.62 73 1 73 C-0.45555649 67.90555228 -1.25219524 64.96072286 -1.31884766 59.97290039 C-1.33871735 58.83224625 -1.35858704 57.6915921 -1.37905884 56.51637268 C-1.39061005 55.30569626 -1.40216125 54.09501984 -1.4140625 52.84765625 C-1.43342865 51.59238632 -1.4527948 50.33711639 -1.4727478 49.04380798 C-1.52222357 45.72798944 -1.56356677 42.41227655 -1.60089111 39.09631348 C-1.64110271 35.70408379 -1.69211621 32.31201782 -1.7421875 28.91992188 C-1.83802316 22.28005366 -1.92313055 15.64011341 -2 9 C-2.66 8.67 -3.32 8.34 -4 8 C-3.99777939 8.8054425 -3.99555878 9.61088501 -3.99327087 10.44073486 C-3.9732299 18.03301905 -3.95800642 25.62529041 -3.94818783 33.21759415 C-3.94297031 37.12082295 -3.93589316 41.02402988 -3.92456055 44.92724609 C-3.91369153 48.69438644 -3.90771463 52.46150576 -3.90512276 56.22866058 C-3.90327576 57.66555869 -3.89966905 59.10245564 -3.89426994 60.53934479 C-3.88700637 62.55258562 -3.88659149 64.56584763 -3.88647461 66.57910156 C-3.884254 67.72493713 -3.88203339 68.87077271 -3.87974548 70.05133057 C-4 73 -4 73 -5 77 C9.85 77 24.7 77 40 77 C40 77.33 40 77.66 40 78 C38.92878906 78.06058594 37.85757813 78.12117188 36.75390625 78.18359375 C35.35675609 78.26798537 33.95962143 78.35263406 32.5625 78.4375 C31.85544922 78.47681641 31.14839844 78.51613281 30.41992188 78.55664062 C26.91309581 78.47624438 26.91309581 78.47624438 24 80 C22.48530552 80.23192865 20.96245438 80.41215238 19.4375 80.5625 C18.61121094 80.64628906 17.78492187 80.73007812 16.93359375 80.81640625 C16.29550781 80.87699219 15.65742187 80.93757813 15 81 C14.67 82.32 14.34 83.64 14 85 C9.27536912 84.53680089 5.82942948 83.90108294 2 81 C2 80.34 2 79.68 2 79 C1.34 78.67 0.68 78.34 0 78 C0 78.66 0 79.32 0 80 C-6.15234375 80.09765625 -6.15234375 80.09765625 -8 80 C-9.51277289 78.48722711 -9.5604507 76.82412327 -10 74.75 C-10.17273438 73.94175781 -10.34546875 73.13351562 -10.5234375 72.30078125 C-11.02706715 69.86932336 -11.52815792 67.43785073 -12 65 C-11.01 65 -10.02 65 -9 65 C-9 45.53 -9 26.06 -9 6 C-4.545 5.505 -4.545 5.505 0 5 C0 3.35 0 1.7 0 0 Z " fill="#AE5D60" transform="translate(92,218)"/>
<path d="M0 0 C18.20769075 0.03833198 18.20769075 0.03833198 24.0859375 5.1328125 C28.12042992 10.31644828 28.77127109 15.78242039 28.53515625 22.22265625 C27.84317727 26.70547661 26.21460962 29.86454083 23.0859375 33.1328125 C14.87074954 38.55134073 5.36914016 37.49086946 -3.9140625 36.1328125 C-3.93871348 31.16658901 -3.95689899 26.20040084 -3.96899414 21.23413086 C-3.9740344 19.54336934 -3.98086655 17.85261221 -3.98950195 16.16186523 C-4.00158107 13.73680543 -4.00729373 11.31180306 -4.01171875 8.88671875 C-4.01688004 8.12629776 -4.02204132 7.36587677 -4.02735901 6.58241272 C-4.02755488 4.7654868 -3.97603527 2.94868123 -3.9140625 1.1328125 C-2.9140625 0.1328125 -2.9140625 0.1328125 0 0 Z M6.0859375 9.1328125 C6.0859375 15.4028125 6.0859375 21.6728125 6.0859375 28.1328125 C12.55699141 28.60874257 12.55699141 28.60874257 16.0234375 26.8203125 C18.85885804 23.12567362 18.7336297 20.2689397 18.49609375 15.70703125 C18.21695966 13.00560019 18.21695966 13.00560019 16.5859375 10.4453125 C13.37600517 8.51303397 13.37600517 8.51303397 6.0859375 9.1328125 Z " fill="#AC3E40" transform="translate(384.9140625,227.8671875)"/>
<path d="M0 0 C-0.8125 3.4375 -0.8125 3.4375 -2 7 C-5 8 -5 8 -7.8125 7 C-11.38690925 5.87861671 -13.41997961 6.00092454 -17 7 C-17.33 7.66 -17.66 8.32 -18 9 C-17.19175781 9.18175781 -16.38351563 9.36351562 -15.55078125 9.55078125 C-14.48214844 9.80214844 -13.41351563 10.05351562 -12.3125 10.3125 C-11.25675781 10.55613281 -10.20101562 10.79976562 -9.11328125 11.05078125 C-5.99767223 12.00070972 -3.63760832 13.09641997 -1 15 C-1 15.66 -1 16.32 -1 17 C-0.34 17 0.32 17 1 17 C1.05437607 18.58294782 1.09296271 20.16644256 1.125 21.75 C1.14820313 22.63171875 1.17140625 23.5134375 1.1953125 24.421875 C0.98135659 27.24609299 0.62378451 28.68586399 -1 31 C-6.6515377 35.42687056 -13.16567772 34.70806042 -20 34 C-23.24795983 33.02561205 -25.15849998 31.95004903 -28 30 C-28.33 29.01 -28.66 28.02 -29 27 C-27.5625 24.3125 -27.5625 24.3125 -26 22 C-23.23723823 22.52268466 -20.6739124 23.10869587 -18 24 C-16.60560336 24.06665376 -15.20830125 24.08538199 -13.8125 24.0625 C-12.554375 24.041875 -11.29625 24.02125 -10 24 C-10 23.34 -10 22.68 -10 22 C-10.80824219 21.75765625 -11.61648437 21.5153125 -12.44921875 21.265625 C-23.25158684 17.87766878 -23.25158684 17.87766878 -27 14 C-28.61540873 10.76918255 -28.5896275 7.49240902 -28 4 C-22.24985965 -6.36801368 -9.2697663 -4.27835368 0 0 Z " fill="#202020" transform="translate(223,231)"/>
<path d="M0 0 C0.74362793 0.01047363 1.48725586 0.02094727 2.25341797 0.03173828 C3.46191406 0.04140625 3.46191406 0.04140625 4.69482422 0.05126953 C5.95746094 0.07640625 5.95746094 0.07640625 7.24560547 0.10205078 C8.51984375 0.11558594 8.51984375 0.11558594 9.81982422 0.12939453 C11.9202043 0.15299431 14.02043991 0.18886595 16.12060547 0.22705078 C16.45060547 1.21705078 16.78060547 2.20705078 17.12060547 3.22705078 C16.46060547 3.22705078 15.80060547 3.22705078 15.12060547 3.22705078 C14.99814453 3.77876953 14.87568359 4.33048828 14.74951172 4.89892578 C14.04066936 7.52296333 13.08449291 9.96074608 12.05810547 12.47705078 C11.69587891 13.36908203 11.33365234 14.26111328 10.96044922 15.18017578 C10.68330078 15.85564453 10.40615234 16.53111328 10.12060547 17.22705078 C12.76060547 17.22705078 15.40060547 17.22705078 18.12060547 17.22705078 C18.12060547 22.14477194 16.28670613 24.05832531 13.30810547 27.66455078 C12.81834229 28.27057129 12.3285791 28.8765918 11.82397461 29.50097656 C10.26690132 31.41871102 8.69464837 33.32323141 7.12060547 35.22705078 C6.60304688 35.8611084 6.08548828 36.49516602 5.55224609 37.1484375 C4.06226253 38.97314804 2.56271367 40.78938866 1.05810547 42.60205078 C0.59364014 43.16722412 0.1291748 43.73239746 -0.34936523 44.31469727 C-1.4812099 45.65790924 -2.67508803 46.94840438 -3.87939453 48.22705078 C-4.53939453 48.22705078 -5.19939453 48.22705078 -5.87939453 48.22705078 C-4.7804897 41.31041451 -3.31370268 34.79968279 -0.87939453 28.22705078 C-1.99314453 28.24767578 -3.10689453 28.26830078 -4.25439453 28.28955078 C-7.87939453 28.22705078 -7.87939453 28.22705078 -9.87939453 27.22705078 C-8.79501882 21.16310766 -7.42532078 15.18775805 -5.87939453 9.22705078 C-5.71342773 8.56825928 -5.54746094 7.90946777 -5.37646484 7.23071289 C-3.57766943 0.43222039 -3.57766943 0.43222039 0 0 Z " fill="#D73332" transform="translate(111.87939453125,235.77294921875)"/>
<path d="M0 0 C0.79535156 -0.020625 1.59070313 -0.04125 2.41015625 -0.0625 C8.50323487 -0.10252022 13.55041737 0.70787564 18.25 4.9375 C20.62695765 9.82346851 20.84081763 15.03820399 19.375 20.25 C18.715 20.25 18.055 20.25 17.375 20.25 C17.106875 20.86875 16.83875 21.4875 16.5625 22.125 C15.375 24.25 15.375 24.25 12.375 26.25 C9.45703125 26.4453125 9.45703125 26.4453125 6.1875 26.375 C5.10082031 26.35695312 4.01414062 26.33890625 2.89453125 26.3203125 C1.64736328 26.28550781 1.64736328 26.28550781 0.375 26.25 C0.38660156 26.96027344 0.39820313 27.67054688 0.41015625 28.40234375 C0.42369141 29.78099609 0.42369141 29.78099609 0.4375 31.1875 C0.44910156 32.10402344 0.46070313 33.02054687 0.47265625 33.96484375 C0.375 36.25 0.375 36.25 -0.625 37.25 C-2.4375 37.3828125 -2.4375 37.3828125 -4.625 37.375 C-5.346875 37.37757813 -6.06875 37.38015625 -6.8125 37.3828125 C-8.625 37.25 -8.625 37.25 -9.625 36.25 C-9.72591475 33.66810554 -9.76471499 31.113535 -9.7578125 28.53125 C-9.75876923 27.75817505 -9.75972595 26.9851001 -9.76071167 26.18859863 C-9.76139341 24.55102456 -9.75953957 22.91344781 -9.75537109 21.27587891 C-9.75002271 18.76068079 -9.75531626 16.24566127 -9.76171875 13.73046875 C-9.76105797 12.14322877 -9.7597768 10.5559889 -9.7578125 8.96875 C-9.75983673 8.21146606 -9.76186096 7.45418213 -9.76394653 6.6739502 C-9.72845149 -1.1794126 -7.03752398 0.04433086 0 0 Z M0.375 9.25 C0.375 12.22 0.375 15.19 0.375 18.25 C5.05867664 18.62127346 5.05867664 18.62127346 9.375 17.125 C10.87172661 14.31863762 10.10794398 12.24840718 9.375 9.25 C6.405 9.25 3.435 9.25 0.375 9.25 Z " fill="#B14B50" transform="translate(357.625,227.75)"/>
<path d="M0 0 C3.125 0.125 3.125 0.125 6.125 1.125 C6.785 0.795 7.445 0.465 8.125 0.125 C12.8445668 -0.52405634 16.09202161 -0.6002827 20.0625 2.1875 C24.1404893 7.99554536 24.33959041 12.97404543 23.609375 19.79296875 C22.8698077 23.35362746 21.84368332 25.51520809 19.0625 27.875 C15.08376682 29.56807795 11.40049129 29.5843503 7.125 29.125 C6.795 28.795 6.465 28.465 6.125 28.125 C5.795 31.425 5.465 34.725 5.125 38.125 C2.155 38.125 -0.815 38.125 -3.875 38.125 C-3.89964928 32.87394558 -3.91783568 27.62292455 -3.92993164 22.37182617 C-3.93497218 20.58405979 -3.94180454 18.79629755 -3.95043945 17.00854492 C-3.9625173 14.44448832 -3.96823094 11.88048603 -3.97265625 9.31640625 C-3.97781754 8.5122377 -3.98297882 7.70806915 -3.98829651 6.87953186 C-3.98849215 4.96098285 -3.93701983 3.04254632 -3.875 1.125 C-2.875 0.125 -2.875 0.125 0 0 Z M6.125 9.125 C4.79798267 14.59436078 4.79798267 14.59436078 6.5625 19.625 C7.078125 20.12 7.59375 20.615 8.125 21.125 C10.59766765 20.78055119 10.59766765 20.78055119 13.125 20.125 C14.54541821 17.28416359 14.43952272 15.27022722 14.125 12.125 C12.37434167 9.70640803 12.37434167 9.70640803 10.125 8.125 C8.0504644 7.9759288 8.0504644 7.9759288 6.125 9.125 Z " fill="#191919" transform="translate(290.875,235.875)"/>
<path d="M0 0 C1.8253125 0.0309375 1.8253125 0.0309375 3.6875 0.0625 C5.74923085 0.0625 7.81362511 0.05437745 9.87109375 -0.078125 C13.994903 -0.27824053 16.0961286 -0.30710713 19.6875 1.9375 C22.73311068 5.17346134 22.8090314 6.94378488 22.78515625 11.2890625 C22.78193359 12.3203125 22.77871094 13.3515625 22.77539062 14.4140625 C22.76701172 15.49429688 22.75863281 16.57453125 22.75 17.6875 C22.74548828 18.77546875 22.74097656 19.8634375 22.73632812 20.984375 C22.72451776 23.67713789 22.70804778 26.36979188 22.6875 29.0625 C21.20843108 29.08939216 19.72922517 29.10884621 18.25 29.125 C17.01443359 29.14240234 17.01443359 29.14240234 15.75390625 29.16015625 C13.6875 29.0625 13.6875 29.0625 12.6875 28.0625 C12.53167697 26.72234779 12.43705858 25.37491097 12.37109375 24.02734375 C12.32919922 23.21845703 12.28730469 22.40957031 12.24414062 21.57617188 C12.20482422 20.72603516 12.16550781 19.87589844 12.125 19 C12.08181641 18.14599609 12.03863281 17.29199219 11.99414062 16.41210938 C11.88773298 14.29577963 11.78708269 12.17916187 11.6875 10.0625 C10.0375 10.0625 8.3875 10.0625 6.6875 10.0625 C6.62691406 11.35027344 6.56632813 12.63804687 6.50390625 13.96484375 C6.41951753 15.64324159 6.3348687 17.32162636 6.25 19 C6.21068359 19.85013672 6.17136719 20.70027344 6.13085938 21.57617188 C6.08896484 22.38505859 6.04707031 23.19394531 6.00390625 24.02734375 C5.94891968 25.15064087 5.94891968 25.15064087 5.89282227 26.29663086 C5.6875 28.0625 5.6875 28.0625 4.6875 29.0625 C2.875 29.1953125 2.875 29.1953125 0.6875 29.1875 C-0.034375 29.19007813 -0.75625 29.19265625 -1.5 29.1953125 C-3.3125 29.0625 -3.3125 29.0625 -4.3125 28.0625 C-4.41233058 26.07492972 -4.44330753 24.0838248 -4.4453125 22.09375 C-4.44660156 20.88332031 -4.44789063 19.67289063 -4.44921875 18.42578125 C-4.44535156 17.15089844 -4.44148437 15.87601563 -4.4375 14.5625 C-4.44136719 13.28761719 -4.44523438 12.01273438 -4.44921875 10.69921875 C-4.44792969 9.48878906 -4.44664062 8.27835938 -4.4453125 7.03125 C-4.44418457 5.91169922 -4.44305664 4.79214844 -4.44189453 3.63867188 C-4.24711023 -0.23937323 -3.98732167 0.07523248 0 0 Z " fill="#202020" transform="translate(231.3125,235.9375)"/>
<path d="M0 0 C1.07507813 -0.00128906 2.15015625 -0.00257813 3.2578125 -0.00390625 C4.38960938 -0.00003906 5.52140625 0.00382813 6.6875 0.0078125 C7.81929688 0.00394531 8.95109375 0.00007812 10.1171875 -0.00390625 C11.19226563 -0.00261719 12.26734375 -0.00132812 13.375 0 C14.86580078 0.00169189 14.86580078 0.00169189 16.38671875 0.00341797 C18.6875 0.1328125 18.6875 0.1328125 19.6875 1.1328125 C19.72842937 3.46578683 19.72991723 5.79986475 19.6875 8.1328125 C16.26517028 9.27358907 13.60076783 9.23096367 10 9.1953125 C8.23076172 9.18177734 8.23076172 9.18177734 6.42578125 9.16796875 C5.52214844 9.15636719 4.61851562 9.14476562 3.6875 9.1328125 C4.0175 10.7828125 4.3475 12.4328125 4.6875 14.1328125 C8.9775 14.4628125 13.2675 14.7928125 17.6875 15.1328125 C17.6875 17.7728125 17.6875 20.4128125 17.6875 23.1328125 C13.0675 23.1328125 8.4475 23.1328125 3.6875 23.1328125 C3.749375 24.8859375 3.81125 26.6390625 3.875 28.4453125 C4.05272054 33.48072783 4.05272054 33.48072783 2.61328125 36.05078125 C-0.3906114 37.73856678 -3.01647437 36.68639623 -6.3125 36.1328125 C-6.33715098 31.16658901 -6.35533649 26.20040084 -6.36743164 21.23413086 C-6.3724719 19.54336934 -6.37930405 17.85261221 -6.38793945 16.16186523 C-6.40001857 13.73680543 -6.40573123 11.31180306 -6.41015625 8.88671875 C-6.41531754 8.12629776 -6.42047882 7.36587677 -6.42579651 6.58241272 C-6.42599238 4.7654868 -6.37447277 2.94868123 -6.3125 1.1328125 C-4.59682208 -0.58286542 -2.33877265 0.00265425 0 0 Z " fill="#B13B3D" transform="translate(423.3125,227.8671875)"/>
<path d="M0 0 C2.85605599 1.79365835 3.91645497 2.9759274 4.9921875 6.203125 C5.07362605 7.83031982 5.0997177 9.46064219 5.08984375 11.08984375 C5.08662109 12.02763672 5.08339844 12.96542969 5.08007812 13.93164062 C5.07169922 14.90810547 5.06332031 15.88457031 5.0546875 16.890625 C5.05017578 17.87869141 5.04566406 18.86675781 5.04101562 19.88476562 C5.02923053 22.32427974 5.01277761 24.76367189 4.9921875 27.203125 C1.25731871 27.7777202 -2.22074518 28.203125 -6.0078125 28.203125 C-6.72839844 28.24953125 -7.44898438 28.2959375 -8.19140625 28.34375 C-12.15128379 28.53591044 -14.4558856 28.5020854 -18.0078125 26.578125 C-20.46143029 23.66445387 -20.93041139 21.99577952 -21.0078125 18.203125 C-20.08198593 15.06955816 -19.32312555 13.51843805 -17.0078125 11.203125 C-15.15297796 10.59598697 -13.27359865 10.06181448 -11.3828125 9.578125 C-9.87847656 9.18753906 -9.87847656 9.18753906 -8.34375 8.7890625 C-7.57289063 8.59570312 -6.80203125 8.40234375 -6.0078125 8.203125 C-9.6378125 8.533125 -13.2678125 8.863125 -17.0078125 9.203125 C-17.6678125 6.893125 -18.3278125 4.583125 -19.0078125 2.203125 C-13.39981479 -1.43449514 -6.33009367 -2.5123329 0 0 Z M-11.0078125 17.203125 C-11.0078125 18.193125 -11.0078125 19.183125 -11.0078125 20.203125 C-9.17080461 20.97554769 -9.17080461 20.97554769 -7.0078125 21.203125 C-5.21529191 19.91102588 -5.21529191 19.91102588 -4.0078125 18.203125 C-4.0078125 17.873125 -4.0078125 17.543125 -4.0078125 17.203125 C-6.3178125 17.203125 -8.6278125 17.203125 -11.0078125 17.203125 Z " fill="#1C1C1C" transform="translate(277.0078125,236.796875)"/>
<path d="M0 0 C1.21429688 0.04640625 2.42859375 0.0928125 3.6796875 0.140625 C16.70354184 1.16953657 26.48440793 7.4725407 35.3203125 16.953125 C39.04435074 21.49125533 42.79548426 26.52211241 45 32 C44.67 32.99 44.34 33.98 44 35 C43.67 34.34 43.34 33.68 43 33 C40.97536745 32.34786708 40.97536745 32.34786708 39 32 C39 33.65 39 35.3 39 37 C37 36 37 36 35.8125 33 C31.31501804 22.08074033 22.01405975 14.34503296 11.3359375 9.82421875 C5.14669486 7.64038899 -0.11883748 6.70329763 -6.625 6.8125 C-7.73101562 6.8134668 -7.73101562 6.8134668 -8.859375 6.81445312 C-12.70525886 6.84546832 -16.25227677 7.16717262 -20 8 C-22.33301986 8.03824623 -24.66711508 8.04574284 -27 8 C-27 6.68 -27 5.36 -27 4 C-26.175 3.896875 -25.35 3.79375 -24.5 3.6875 C-20.90822698 3.1138138 -20.90822698 3.1138138 -17.4375 1.4375 C-11.72116946 -0.77108225 -6.02970304 -0.34455446 0 0 Z " fill="#D44F4F" transform="translate(127,199)"/>
<path d="M0 0 C0 0.33 0 0.66 0 1 C-0.62455078 0.98428955 -1.24910156 0.9685791 -1.89257812 0.95239258 C-4.76162417 0.88947956 -7.63052442 0.85083269 -10.5 0.8125 C-11.48226562 0.78736328 -12.46453125 0.76222656 -13.4765625 0.73632812 C-19.76708648 0.67342289 -24.24604776 1.45996703 -30 4 C-31.65672637 4.37966646 -33.32070245 4.73760976 -35 5 C-35.33 5.99 -35.66 6.98 -36 8 C-34.68 8.33 -33.36 8.66 -32 9 C-33.65 9.66 -35.3 10.32 -37 11 C-17.695 11.495 -17.695 11.495 2 12 C2 12.33 2 12.66 2 13 C-12.19 13.33 -26.38 13.66 -41 14 C-40.11785113 16.88214887 -40.11785113 16.88214887 -39 19 C-38.90839663 21.06292985 -38.8824882 23.12888885 -38.88647461 25.19384766 C-38.88655014 26.49504547 -38.88662567 27.79624329 -38.88670349 29.13687134 C-38.89181053 30.56260211 -38.89702653 31.9883325 -38.90234375 33.4140625 C-38.90420853 34.86851961 -38.90563215 36.32297734 -38.90663147 37.7774353 C-38.91045195 41.60792776 -38.92027824 45.43838237 -38.93133545 49.26885986 C-38.94155965 53.17663053 -38.94613126 57.08440731 -38.95117188 60.9921875 C-38.96190092 68.6614756 -38.97897172 76.3307325 -39 84 C-39.33 84 -39.66 84 -40 84 C-40.66 63.54 -41.32 43.08 -42 22 C-42.66 22.66 -43.32 23.32 -44 24 C-46.65537372 24.56520003 -49.29144713 24.73788198 -52 25 C-51.67 24.34 -51.34 23.68 -51 23 C-49.02 23 -47.04 23 -45 23 C-45 20.69 -45 18.38 -45 16 C-51.6532138 21.98789242 -56.14757015 27.91745109 -60 36 C-60.33 36 -60.66 36 -61 36 C-61 33.69 -61 31.38 -61 29 C-60.34 29 -59.68 29 -59 29 C-59 28.34 -59 27.68 -59 27 C-58.34 27 -57.68 27 -57 27 C-57.33 25.68 -57.66 24.36 -58 23 C-57.01 23 -56.02 23 -55 23 C-55 22.01 -55 21.02 -55 20 C-58.11332248 20.66868314 -58.11332248 20.66868314 -59.1875 23.0625 C-59.455625 23.701875 -59.72375 24.34125 -60 25 C-60.66 25 -61.32 25 -62 25 C-60.87548273 22.0280615 -59.77706209 19.66559313 -58 17 C-57.34 17 -56.68 17 -56 17 C-56 16.34 -56 15.68 -56 15 C-55.34 15 -54.68 15 -54 15 C-54 14.34 -54 13.68 -54 13 C-38.68118289 -0.66028376 -19.65454398 -4.77507359 0 0 Z " fill="#D44D4F" transform="translate(136,199)"/>
<path d="M0 0 C2.97 0 5.94 0 9 0 C8.34 0.66 7.68 1.32 7 2 C6.83322718 5.58343976 6.83322718 5.58343976 7 9 C5.01432292 9.48828125 3.02864583 9.9765625 1.04296875 10.46484375 C-0.65683202 10.91010705 -2.33301954 11.44433985 -4 12 C-4.33 12.99 -4.66 13.98 -5 15 C-3.02 15.33 -1.04 15.66 1 16 C1 16.33 1 16.66 1 17 C-13.27566065 20.46163314 -28.32895122 18.9510747 -41.30859375 11.8515625 C-43.47881745 10.75893255 -45.59834356 10.30020705 -48 10 C-48 9.67 -48 9.34 -48 9 C-46.02 9 -44.04 9 -42 9 C-42 8.34 -42 7.68 -42 7 C-40.35 7.33 -38.7 7.66 -37 8 C-37.66 8.66 -38.32 9.32 -39 10 C-37.73160474 10.50615298 -36.46016898 11.00469099 -35.1875 11.5 C-34.47980469 11.7784375 -33.77210937 12.056875 -33.04296875 12.34375 C-30.88158784 13.1529162 -30.88158784 13.1529162 -28 13 C-28 11.68 -28 10.36 -28 9 C-27.28972656 8.93941406 -26.57945313 8.87882812 -25.84765625 8.81640625 C-24.92855469 8.73261719 -24.00945312 8.64882813 -23.0625 8.5625 C-22.14597656 8.48128906 -21.22945312 8.40007812 -20.28515625 8.31640625 C-18.03840268 8.23955024 -18.03840268 8.23955024 -17 7 C-31.85 6.505 -31.85 6.505 -47 6 C-46.67 5.34 -46.34 4.68 -46 4 C-30.16 4.33 -14.32 4.66 2 5 C2 4.34 2 3.68 2 3 C-11.53 3 -25.06 3 -39 3 C-39 2.67 -39 2.34 -39 2 C-26.13 1.67 -13.26 1.34 0 1 C0 0.67 0 0.34 0 0 Z M-21 10 C-21 10.33 -21 10.66 -21 11 C-15.72 11 -10.44 11 -5 11 C-5 10.67 -5 10.34 -5 10 C-10.28 10 -15.56 10 -21 10 Z " fill="#C26867" transform="translate(134,289)"/>
<path d="M0 0 C1.50433594 0.01353516 1.50433594 0.01353516 3.0390625 0.02734375 C3.80992187 0.03894531 4.58078125 0.05054688 5.375 0.0625 C6.45664681 3.94690457 6.40619577 5.85521059 4.4375 9.375 C4.05722656 10.07238281 3.67695313 10.76976562 3.28515625 11.48828125 C2.98480469 12.00777344 2.68445313 12.52726563 2.375 13.0625 C4.025 13.0625 5.675 13.0625 7.375 13.0625 C8.12890625 14.734375 8.12890625 14.734375 8.375 17.0625 C6.71484375 19.578125 6.71484375 19.578125 4.3125 22.3125 C0.85708543 26.31605187 -2.34713752 30.33836732 -5.3359375 34.69921875 C-5.97402344 35.37404297 -5.97402344 35.37404297 -6.625 36.0625 C-7.615 36.0625 -8.605 36.0625 -9.625 36.0625 C-8.63456295 31.22621695 -7.66801154 26.58631127 -5.625 22.0625 C-7.935 21.7325 -10.245 21.4025 -12.625 21.0625 C-11.98492743 14.18171989 -10.09979101 7.50629546 -7.625 1.0625 C-4.98041621 -0.25979189 -2.94738699 -0.03427194 0 0 Z " fill="#F04D3E" transform="translate(333.625,230.9375)"/>
<path d="M0 0 C14 0 14 0 18 2 C16.375 4 16.375 4 14 6 C12.02 6 10.04 6 8 6 C8 12.93 8 19.86 8 27 C15.49152482 27.73960026 15.49152482 27.73960026 19 25 C19 25.99 19 26.98 19 28 C19.99 28 20.98 28 22 28 C22 27.34 22 26.68 22 26 C22.66 26 23.32 26 24 26 C23.34 28.31 22.68 30.62 22 33 C14.11349477 35.25328721 8.21292159 35.36882027 0 34 C0 22.78 0 11.56 0 0 Z " fill="#A12124" transform="translate(382,230)"/>
<path d="M0 0 C2.04598259 -0.05144388 4.09152708 -0.12620867 6.13574219 -0.22558594 C24.91392316 -1.12182077 24.91392316 -1.12182077 31.62528992 4.69490051 C35.38905665 8.48946497 38.04329148 11.53902675 38.07128906 17.13769531 C37.97678467 18.32468018 37.88228027 19.51166504 37.78491211 20.73461914 C36.79491211 20.73461914 35.80491211 20.73461914 34.78491211 20.73461914 C34.78491211 19.41461914 34.78491211 18.09461914 34.78491211 16.73461914 C33.3946582 16.75202148 33.3946582 16.75202148 31.97631836 16.76977539 C30.7787793 16.77879883 29.58124023 16.78782227 28.34741211 16.79711914 C27.15245117 16.8087207 25.95749023 16.82032227 24.72631836 16.83227539 C21.78491211 16.73461914 21.78491211 16.73461914 20.78491211 15.73461914 C20.78491211 12.43461914 20.78491211 9.13461914 20.78491211 5.73461914 C7.91491211 5.73461914 -4.95508789 5.73461914 -18.21508789 5.73461914 C-18.54508789 4.41461914 -18.87508789 3.09461914 -19.21508789 1.73461914 C-16.05796676 -1.42250199 -4.45229778 0.08809075 0 0 Z M25.78491211 8.73461914 C25.78491211 10.05461914 25.78491211 11.37461914 25.78491211 12.73461914 C27.10491211 12.40461914 28.42491211 12.07461914 29.78491211 11.73461914 C28.46491211 10.74461914 27.14491211 9.75461914 25.78491211 8.73461914 Z " fill="#B2494D" transform="translate(113.215087890625,211.265380859375)"/>
<path d="M0 0 C6.27 0 12.54 0 19 0 C19 1.32 19 2.64 19 4 C16.11788698 4.96070434 14.30149956 5.10581883 11.3125 5.0625 C9.889375 5.041875 8.46625 5.02125 7 5 C7 8.63 7 12.26 7 16 C10.3 16 13.6 16 17 16 C17.99 12.7 18.98 9.4 20 6 C20.66 6.33 21.32 6.66 22 7 C22 7.66 22 8.32 22 9 C22.66 9 23.32 9 24 9 C23.67 8.01 23.34 7.02 23 6 C23.66 6 24.32 6 25 6 C25 9.63 25 13.26 25 17 C23.68 17.33 22.36 17.66 21 18 C20.34 18.99 19.68 19.98 19 21 C16.28515625 21.4765625 16.28515625 21.4765625 13.0625 21.625 C9.74073351 21.79451907 7.16448749 21.94517084 4 23 C3.63451555 24.32488113 3.3062434 25.66018514 3 27 C2.01 28.32 1.02 29.64 0 31 C0 20.77 0 10.54 0 0 Z " fill="#AC2123" transform="translate(350,231)"/>
<path d="M0 0 C0.33 0 0.66 0 1 0 C1.85499988 3.70216169 2.12644782 7.12393044 2.12939453 10.92016602 C2.13254669 12.08810196 2.13569885 13.2560379 2.13894653 14.45936584 C2.1369223 15.71156418 2.13489807 16.96376251 2.1328125 18.25390625 C2.13376923 19.54691147 2.13472595 20.83991669 2.13571167 22.17210388 C2.13718254 24.90307821 2.13505341 27.63401973 2.13037109 30.36499023 C2.12466849 33.860887 2.12796002 37.35670708 2.13394356 40.85260105 C2.13843004 44.1947089 2.13528724 47.53679622 2.1328125 50.87890625 C2.13483673 52.13312881 2.13686096 53.38735138 2.13894653 54.67958069 C2.13579437 55.84436447 2.13264221 57.00914825 2.12939453 58.20922852 C2.12820114 59.7454763 2.12820114 59.7454763 2.12698364 61.3127594 C2 64 2 64 1 68 C15.85 68 30.7 68 46 68 C46 68.33 46 68.66 46 69 C44.92878906 69.06058594 43.85757813 69.12117188 42.75390625 69.18359375 C41.35675609 69.26798537 39.95962143 69.35263406 38.5625 69.4375 C37.85544922 69.47681641 37.14839844 69.51613281 36.41992188 69.55664062 C32.91309581 69.47624438 32.91309581 69.47624438 30 71 C28.48530552 71.23192865 26.96245438 71.41215238 25.4375 71.5625 C24.61121094 71.64628906 23.78492187 71.73007812 22.93359375 71.81640625 C22.29550781 71.87699219 21.65742187 71.93757813 21 72 C20.67 73.32 20.34 74.64 20 76 C15.27536912 75.53680089 11.82942948 74.90108294 8 72 C8 71.34 8 70.68 8 70 C7.34 69.67 6.68 69.34 6 69 C6 69.66 6 70.32 6 71 C-0.15234375 71.09765625 -0.15234375 71.09765625 -2 71 C-3.51277289 69.48722711 -3.5604507 67.82412327 -4 65.75 C-4.17273438 64.94175781 -4.34546875 64.13351562 -4.5234375 63.30078125 C-5.02706715 60.86932336 -5.52815792 58.43785073 -6 56 C-4.68 56 -3.36 56 -2 56 C-1.00175095 53.00525286 -0.84675968 50.92654666 -0.79467773 47.79418945 C-0.77473251 46.73331619 -0.75478729 45.67244293 -0.73423767 44.579422 C-0.70916893 42.86368233 -0.70916893 42.86368233 -0.68359375 41.11328125 C-0.66281265 39.94113571 -0.64203156 38.76899017 -0.62062073 37.56132507 C-0.55516182 33.81177714 -0.49625704 30.06215837 -0.4375 26.3125 C-0.39431132 23.77277909 -0.35069692 21.23306538 -0.30664062 18.69335938 C-0.19948414 12.46231478 -0.0977108 6.23119949 0 0 Z " fill="#AA545A" transform="translate(86,227)"/>
<path d="M0 0 C3.63 0 7.26 0 11 0 C11 0.99 11 1.98 11 3 C9.824375 2.9690625 9.824375 2.9690625 8.625 2.9375 C6.01885039 2.81315937 6.01885039 2.81315937 4 4 C4.33 4.66 4.66 5.32 5 6 C7.02463255 6.65213292 7.02463255 6.65213292 9 7 C8.67 6.01 8.34 5.02 8 4 C8.99 4.33 9.98 4.66 11 5 C11 7.97 11 10.94 11 14 C13.64 14 16.28 14 19 14 C19 14.99 19 15.98 19 17 C19.99 17 20.98 17 22 17 C22.0825 16.21625 22.165 15.4325 22.25 14.625 C23 12 23 12 25.0625 10.6875 C26.0215625 10.3471875 26.0215625 10.3471875 27 10 C28.4783226 12.95664519 28.06032783 15.74229737 28 19 C23.52055965 18.86189095 19.04153217 18.71322584 14.5625 18.5625 C13.28310547 18.52318359 12.00371094 18.48386719 10.68554688 18.44335938 C9.47060547 18.40146484 8.25566406 18.35957031 7.00390625 18.31640625 C5.87799072 18.27974854 4.7520752 18.24309082 3.59204102 18.20532227 C1 18 1 18 0 17 C-0.07325168 14.13732433 -0.09238205 11.299281 -0.0625 8.4375 C-0.05798828 7.63119141 -0.05347656 6.82488281 -0.04882812 5.99414062 C-0.03700518 3.99606244 -0.01906914 1.99802217 0 0 Z " fill="#CC3F41" transform="translate(131,233)"/>
<path d="M0 0 C0.99 0 1.98 0 3 0 C3 11.88 3 23.76 3 36 C2.01 36 1.02 36 0 36 C0.33 36.66 0.66 37.32 1 38 C-1.64 38 -4.28 38 -7 38 C-7 37.67 -7 37.34 -7 37 C-12.64707714 36.2128826 -18.17762337 35.80756832 -23.875 35.68359375 C-25.08990112 35.6524221 -25.08990112 35.6524221 -26.3293457 35.62062073 C-28.88615424 35.55586344 -31.44305481 35.49658806 -34 35.4375 C-35.74610281 35.39424434 -37.49219672 35.35062796 -39.23828125 35.30664062 C-43.49209609 35.20025917 -47.74600236 35.09878982 -52 35 C-51.67 34.34 -51.34 33.68 -51 33 C-26.25 33.495 -26.25 33.495 -1 34 C-1.03957117 23.55881204 -1.03957117 23.55881204 -1.09008789 13.11767578 C-1.09258545 11.8232959 -1.09508301 10.52891602 -1.09765625 9.1953125 C-1.10277222 8.51460693 -1.10788818 7.83390137 -1.11315918 7.13256836 C-1.1140718 2.2281436 -1.1140718 2.2281436 0 0 Z " fill="#B16465" transform="translate(148,253)"/>
<path d="M0 0 C0.33 0 0.66 0 1 0 C1 11.55 1 23.1 1 35 C3.63613281 34.96519531 6.27226563 34.93039062 8.98828125 34.89453125 C11.53994666 34.87113856 14.09160016 34.85292037 16.64331055 34.83520508 C18.41745343 34.82011359 20.19155898 34.79963809 21.96557617 34.77368164 C24.51490487 34.73731359 27.06374059 34.72027762 29.61328125 34.70703125 C30.40712723 34.69154739 31.20097321 34.67606354 32.01887512 34.66011047 C34.26293945 34.65942383 34.26293945 34.65942383 38 35 C38.99 35.99 39.98 36.98 41 38 C27.47 38 13.94 38 0 38 C-2.08161764 33.83676471 -2.25680544 31.98505275 -2.265625 27.44140625 C-2.26820312 26.16845703 -2.27078125 24.89550781 -2.2734375 23.58398438 C-2.26924805 22.92358154 -2.26505859 22.26317871 -2.26074219 21.58276367 C-2.25005288 19.57244554 -2.26064407 17.56302457 -2.2734375 15.55273438 C-2.27085938 14.27849609 -2.26828125 13.00425781 -2.265625 11.69140625 C-2.26336914 10.52810791 -2.26111328 9.36480957 -2.25878906 8.16625977 C-2.00316667 5.03874396 -1.33246195 2.82073066 0 0 Z " fill="#7C141A" transform="translate(95,253)"/>
<path d="M0 0 C0.33 0 0.66 0 1 0 C1 1.98 1 3.96 1 6 C3.64 6 6.28 6 9 6 C10.17426264 8.34852528 10.11508173 9.73774065 10.09765625 12.3515625 C10.09443359 13.20234375 10.09121094 14.053125 10.08789062 14.9296875 C10.07951172 15.81914062 10.07113281 16.70859375 10.0625 17.625 C10.05798828 18.5221875 10.05347656 19.419375 10.04882812 20.34375 C10.03702591 22.56256648 10.02056155 24.78125018 10 27 C9.67 27 9.34 27 9 27 C8.505 17.595 8.505 17.595 8 8 C7.01 8 6.02 8 5 8 C5.495 8.61875 5.99 9.2375 6.5 9.875 C8 12 8 12 8 14 C5.69 14 3.38 14 1 14 C1 14.99 1 15.98 1 17 C1.99 17.33 2.98 17.66 4 18 C3.01 18 2.02 18 1 18 C1 18.99 1 19.98 1 21 C-2.47325181 22.1577506 -5.36067448 22.06866652 -9 22 C-9 19.03 -9 16.06 -9 13 C-8.21625 12.855625 -7.4325 12.71125 -6.625 12.5625 C-4.03578982 12.12201075 -4.03578982 12.12201075 -2 11 C-2.77924676 8.86618948 -2.77924676 8.86618948 -4.640625 8.41015625 C-7.67226119 7.8831334 -10.68068361 7.65235215 -13.75 7.4375 C-14.92046875 7.35371094 -16.0909375 7.26992187 -17.296875 7.18359375 C-18.18890625 7.12300781 -19.0809375 7.06242188 -20 7 C-20 6.67 -20 6.34 -20 6 C-14.72 6 -9.44 6 -4 6 C-4 5.34 -4 4.68 -4 4 C-5.65 4 -7.3 4 -9 4 C-9 3.67 -9 3.34 -9 3 C-7.02 3 -5.04 3 -3 3 C-3 4.32 -3 5.64 -3 7 C-2.01 7 -1.02 7 0 7 C0 4.69 0 2.38 0 0 Z M-3 16 C-2 19 -2 19 -2 19 Z " fill="#E58381" transform="translate(151,225)"/>
<path d="M0 0 C0 0.66 0 1.32 0 2 C-0.66 2 -1.32 2 -2 2 C-2 2.66 -2 3.32 -2 4 C-2.99 4 -3.98 4 -5 4 C-4.896875 4.7425 -4.79375 5.485 -4.6875 6.25 C-5 9 -5 9 -6.8125 11 C-15.21118391 16.26976246 -21.99859462 18.87052851 -32 18 C-30.41442729 14.57959424 -29.5844539 13.35627985 -26 12 C-24.824375 11.690625 -23.64875 11.38125 -22.4375 11.0625 C-19.17652503 10.05456228 -18.08764024 9.52714345 -16 7 C-15.34 6.67 -14.68 6.34 -14 6 C-16.475 5.505 -16.475 5.505 -19 5 C-19 4.67 -19 4.34 -19 4 C-17.88625 3.87625 -16.7725 3.7525 -15.625 3.625 C-11.96896323 3.3534187 -11.96896323 3.3534187 -10 1 C-6.61691776 0.38489414 -3.43885893 0 0 0 Z " fill="#C03B3A" transform="translate(159,287)"/>
<path d="M0 0 C1.07507813 -0.00128906 2.15015625 -0.00257813 3.2578125 -0.00390625 C4.38960938 -0.00003906 5.52140625 0.00382813 6.6875 0.0078125 C7.81929688 0.00394531 8.95109375 0.00007812 10.1171875 -0.00390625 C11.19226563 -0.00261719 12.26734375 -0.00132812 13.375 0 C14.86580078 0.00169189 14.86580078 0.00169189 16.38671875 0.00341797 C18.6875 0.1328125 18.6875 0.1328125 19.6875 1.1328125 C19.6875 3.4428125 19.6875 5.7528125 19.6875 8.1328125 C14.0775 8.1328125 8.4675 8.1328125 2.6875 8.1328125 C2.6875 10.1128125 2.6875 12.0928125 2.6875 14.1328125 C2.3575 14.1328125 2.0275 14.1328125 1.6875 14.1328125 C1.6875 11.8228125 1.6875 9.5128125 1.6875 7.1328125 C2.60273438 7.09542969 3.51796875 7.05804688 4.4609375 7.01953125 C5.64945312 6.95378906 6.83796875 6.88804687 8.0625 6.8203125 C9.24585938 6.76230469 10.42921875 6.70429688 11.6484375 6.64453125 C12.65132813 6.47566406 13.65421875 6.30679688 14.6875 6.1328125 C15.3475 5.1428125 16.0075 4.1528125 16.6875 3.1328125 C15.67042969 3.15021484 15.67042969 3.15021484 14.6328125 3.16796875 C13.70210938 3.17699219 12.77140625 3.18601563 11.8125 3.1953125 C10.45511719 3.21271484 10.45511719 3.21271484 9.0703125 3.23046875 C4.59625913 3.10131017 0.14120416 2.57818292 -4.3125 2.1328125 C-4.3125 12.6928125 -4.3125 23.2528125 -4.3125 34.1328125 C-2.6625 34.1328125 -1.0125 34.1328125 0.6875 34.1328125 C1.0175 30.8328125 1.3475 27.5328125 1.6875 24.1328125 C2.0175 24.1328125 2.3475 24.1328125 2.6875 24.1328125 C2.6875 28.0928125 2.6875 32.0528125 2.6875 36.1328125 C-0.38140187 37.66726344 -3.01344266 36.68265539 -6.3125 36.1328125 C-6.33715098 31.16658901 -6.35533649 26.20040084 -6.36743164 21.23413086 C-6.3724719 19.54336934 -6.37930405 17.85261221 -6.38793945 16.16186523 C-6.40001857 13.73680543 -6.40573123 11.31180306 -6.41015625 8.88671875 C-6.41531754 8.12629776 -6.42047882 7.36587677 -6.42579651 6.58241272 C-6.42599238 4.7654868 -6.37447277 2.94868123 -6.3125 1.1328125 C-4.59682208 -0.58286542 -2.33877265 0.00265425 0 0 Z " fill="#993D41" transform="translate(423.3125,227.8671875)"/>
<path d="M0 0 C1.03640625 0.0309375 2.0728125 0.061875 3.140625 0.09375 C10.24563224 0.47369691 10.24563224 0.47369691 13.6875 2.875 C15 5 15 5 15 8 C12.70060711 7.46937087 10.63416767 6.8489683 8.4453125 5.9453125 C3.98153824 4.72055811 0.08353534 4.94348053 -4.5 5.25 C-5.32886719 5.28996094 -6.15773438 5.32992187 -7.01171875 5.37109375 C-11.68866313 5.64620813 -15.56649635 6.39138363 -20 8 C-22.33212027 8.07522969 -24.6685311 8.09325876 -27 8 C-27 6.68 -27 5.36 -27 4 C-26.175 3.896875 -25.35 3.79375 -24.5 3.6875 C-20.90822698 3.1138138 -20.90822698 3.1138138 -17.4375 1.4375 C-11.76437086 -0.78194938 -5.99004731 -0.28122288 0 0 Z " fill="#E04B46" transform="translate(127,199)"/>
<path d="M0 0 C0.66 0 1.32 0 2 0 C2.33 10.23 2.66 20.46 3 31 C3.99 29.02 4.98 27.04 6 25 C10.06287949 22.29141367 13.4948313 22.62140634 18.28515625 22.44140625 C19.18105469 22.29574219 20.07695312 22.15007812 21 22 C21.66 21.01 22.32 20.02 23 19 C24.32 19 25.64 19 27 19 C25.63016497 22.16115776 25.0109362 22.9927092 22 25 C19.08203125 25.1953125 19.08203125 25.1953125 15.8125 25.125 C14.72582031 25.10695312 13.63914062 25.08890625 12.51953125 25.0703125 C11.27236328 25.03550781 11.27236328 25.03550781 10 25 C10.01160156 25.71027344 10.02320313 26.42054688 10.03515625 27.15234375 C10.04869141 28.53099609 10.04869141 28.53099609 10.0625 29.9375 C10.07410156 30.85402344 10.08570313 31.77054687 10.09765625 32.71484375 C10 35 10 35 9 36 C7.1875 36.1328125 7.1875 36.1328125 5 36.125 C4.278125 36.12757813 3.55625 36.13015625 2.8125 36.1328125 C1 36 1 36 0 35 C-0.08851529 32.40640678 -0.11525945 29.83960309 -0.09765625 27.24609375 C-0.09553383 26.08292381 -0.09553383 26.08292381 -0.09336853 24.89625549 C-0.08775345 22.40996506 -0.07519846 19.9237634 -0.0625 17.4375 C-0.05748694 15.75586067 -0.0529237 14.07421994 -0.04882812 12.39257812 C-0.03777913 8.26168434 -0.02050445 4.13085724 0 0 Z " fill="#A33E43" transform="translate(348,229)"/>
<path d="M0 0 C2.97 0 5.94 0 9 0 C8.34 0.66 7.68 1.32 7 2 C6.83322718 5.58343976 6.83322718 5.58343976 7 9 C3.59698245 9.78653402 0.62008956 10.08116649 -2.86328125 9.87890625 C-3.74951172 9.83056641 -4.63574219 9.78222656 -5.54882812 9.73242188 C-6.46083984 9.67634766 -7.37285156 9.62027344 -8.3125 9.5625 C-9.24384766 9.51029297 -10.17519531 9.45808594 -11.13476562 9.40429688 C-13.42356353 9.2751852 -15.71186186 9.14024585 -18 9 C-17.67 8.34 -17.34 7.68 -17 7 C-31.85 6.505 -31.85 6.505 -47 6 C-46.67 5.34 -46.34 4.68 -46 4 C-30.16 4.33 -14.32 4.66 2 5 C2 4.34 2 3.68 2 3 C-11.53 3 -25.06 3 -39 3 C-39 2.67 -39 2.34 -39 2 C-26.13 1.67 -13.26 1.34 0 1 C0 0.67 0 0.34 0 0 Z " fill="#BA6065" transform="translate(134,289)"/>
<path d="M0 0 C0.66 0.33 1.32 0.66 2 1 C2 1.66 2 2.32 2 3 C2.66 3.33 3.32 3.66 4 4 C4 4.66 4 5.32 4 6 C3.01 6 2.02 6 1 6 C1.061875 7.175625 1.061875 7.175625 1.125 8.375 C1 11 1 11 -1 13 C-1.37125 14.010625 -1.7425 15.02125 -2.125 16.0625 C-4.20776787 21.17769155 -8.00367348 25.25821657 -12 29 C-12.66 29 -13.32 29 -14 29 C-12.07289294 17.47835991 -12.07289294 17.47835991 -10 12 C-9.34 12 -8.68 12 -8 12 C-8.103125 11.236875 -8.20625 10.47375 -8.3125 9.6875 C-8.1578125 8.3571875 -8.1578125 8.3571875 -8 7 C-5.6875 5.4375 -5.6875 5.4375 -3 4 C-1.21655822 1.93045153 -1.21655822 1.93045153 0 0 Z " fill="#CE2E2C" transform="translate(120,255)"/>
<path d="M0 0 C0.84072052 0.02009628 1.68144104 0.04019257 2.54763794 0.06089783 C3.91020218 0.10145042 3.91020218 0.10145042 5.30029297 0.14282227 C6.22969696 0.16643326 7.15910095 0.19004425 8.1166687 0.21437073 C11.09209152 0.29108941 14.06725943 0.37507843 17.04248047 0.45922852 C19.05679081 0.51244099 21.07111368 0.56518143 23.08544922 0.61743164 C28.02962179 0.74671567 32.97357774 0.88252145 37.91748047 1.02172852 C37.91748047 1.35172852 37.91748047 1.68172852 37.91748047 2.02172852 C23.72748047 2.35172852 9.53748047 2.68172852 -5.08251953 3.02172852 C-4.20037066 5.90387739 -4.20037066 5.90387739 -3.08251953 8.02172852 C-2.99091616 10.08465837 -2.96500773 12.15061737 -2.96899414 14.21557617 C-2.96906967 15.51677399 -2.9691452 16.8179718 -2.96922302 18.15859985 C-2.97433006 19.58433063 -2.97954606 21.01006101 -2.98486328 22.43579102 C-2.98672806 23.89024812 -2.98815168 25.34470586 -2.989151 26.79916382 C-2.99297148 30.62965627 -3.00279777 34.46011089 -3.01385498 38.29058838 C-3.02407918 42.19835905 -3.02865079 46.10613583 -3.03369141 50.01391602 C-3.04442045 57.68320411 -3.06149125 65.35246101 -3.08251953 73.02172852 C-3.41251953 73.02172852 -3.74251953 73.02172852 -4.08251953 73.02172852 C-4.74251953 52.56172852 -5.40251953 32.10172852 -6.08251953 11.02172852 C-6.74251953 11.68172852 -7.40251953 12.34172852 -8.08251953 13.02172852 C-10.73789326 13.58692855 -13.37396666 13.7596105 -16.08251953 14.02172852 C-15.75251953 13.36172852 -15.42251953 12.70172852 -15.08251953 12.02172852 C-13.10251953 12.02172852 -11.12251953 12.02172852 -9.08251953 12.02172852 C-9.14439453 11.13485352 -9.20626953 10.24797852 -9.27001953 9.33422852 C-9.06110647 5.64343105 -8.26381357 3.95808587 -6.08251953 1.02172852 C-3.7703254 -0.13436855 -2.56521257 -0.06912249 0 0 Z " fill="#CC8689" transform="translate(100.08251953125,209.978271484375)"/>
<path d="M0 0 C0.33 0 0.66 0 1 0 C1 18.81 1 37.62 1 57 C0.01 57 -0.98 57 -2 57 C-1.505 58.051875 -1.01 59.10375 -0.5 60.1875 C0.82779788 63.25452609 1.30715006 65.62134936 1 69 C0.67 67.68 0.34 66.36 0 65 C-0.66 65 -1.32 65 -2 65 C-3.44526736 63.26451831 -4.8087222 61.46024037 -6.125 59.625 C-6.84945312 58.62726563 -7.57390625 57.62953125 -8.3203125 56.6015625 C-10 54 -10 54 -10 52 C-8.515 51.505 -8.515 51.505 -7 51 C-7.33 50.175 -7.66 49.35 -8 48.5 C-9.16782809 44.4126017 -9.1458885 41.23076656 -9 37 C-6.7281497 40.40777545 -5.4515982 43.81455473 -4 47.625 C-3.00504505 50.19647651 -3.00504505 50.19647651 -1 53 C-0.67 35.51 -0.34 18.02 0 0 Z " fill="#DB888A" transform="translate(82,226)"/>
<path d="M0 0 C2.375 0.3125 2.375 0.3125 5 1 C9.45394123 7.68091184 8.52010113 19.07610624 8 27 C7.67 27.99 7.34 28.98 7 30 C4.9375 30.6875 4.9375 30.6875 3 31 C2.95101562 29.91460937 2.90203125 28.82921875 2.8515625 27.7109375 C2.77648014 26.26560216 2.70093472 24.82029081 2.625 23.375 C2.57859375 22.30572266 2.57859375 22.30572266 2.53125 21.21484375 C2.28801091 16.79600037 1.46495638 13.20584251 0 9 C-0.1953125 6.4453125 -0.1953125 6.4453125 -0.125 4.125 C-0.10695312 3.34382812 -0.08890625 2.56265625 -0.0703125 1.7578125 C-0.04710937 1.17773438 -0.02390625 0.59765625 0 0 Z " fill="#CB4A47" transform="translate(166,231)"/>
<path d="M0 0 C0.33 0 0.66 0 1 0 C1.02696365 1.79158489 1.04637917 3.58328473 1.0625 5.375 C1.07410156 6.37273437 1.08570313 7.37046875 1.09765625 8.3984375 C1 11 1 11 0 13 C4.29 13.66 8.58 14.32 13 15 C11.23020385 18.53959229 9.34682231 21.53408255 7.0625 24.75 C6.37285156 25.73484375 5.68320312 26.7196875 4.97265625 27.734375 C4.32167969 28.48203125 3.67070312 29.2296875 3 30 C2.01 30 1.02 30 0 30 C0.99043705 25.16371695 1.95698846 20.52381127 4 16 C1.69 15.67 -0.62 15.34 -3 15 C-2.35812082 9.86496656 -1.31727753 5.0056546 0 0 Z " fill="#D05752" transform="translate(324,237)"/>
<path d="M0 0 C2.22889496 -0.05428973 4.45817471 -0.09292338 6.6875 -0.125 C8.54955078 -0.15980469 8.54955078 -0.15980469 10.44921875 -0.1953125 C13.81237857 -0.01032021 15.9985587 0.54232105 19 2 C18.67 3.32 18.34 4.64 18 6 C15.36 6 12.72 6 10 6 C10.33 7.32 10.66 8.64 11 10 C10.34 9.34 9.68 8.68 9 8 C6.93125966 7.3574765 6.93125966 7.3574765 5 7 C5 5.68 5 4.36 5 3 C7.31 3.33 9.62 3.66 12 4 C12 3.01 12 2.02 12 1 C8.37 1 4.74 1 1 1 C1.14019692 3.81288705 1.28687955 6.62516885 1.4375 9.4375 C1.47681641 10.23994141 1.51613281 11.04238281 1.55664062 11.86914062 C1.4054296 15.75239561 1.4054296 15.75239561 3 19 C5.52596259 19.23653523 8.03107207 19.42173692 10.5625 19.5625 C11.62887695 19.62727539 11.62887695 19.62727539 12.71679688 19.69335938 C14.47761912 19.79971777 16.2387832 19.90038846 18 20 C17.67 20.99 17.34 21.98 17 23 C14.35375716 22.85978195 11.70815422 22.71310224 9.0625 22.5625 C8.30775391 22.52318359 7.55300781 22.48386719 6.77539062 22.44335938 C1.11328125 22.11328125 1.11328125 22.11328125 0 21 C-0.08685603 19.43827255 -0.10702219 17.87270656 -0.09765625 16.30859375 C-0.09443359 15.36435547 -0.09121094 14.42011719 -0.08789062 13.44726562 C-0.07951172 12.45404297 -0.07113281 11.46082031 -0.0625 10.4375 C-0.05798828 9.44041016 -0.05347656 8.44332031 -0.04882812 7.41601562 C-0.03700007 4.94395151 -0.02051849 2.47200482 0 0 Z " fill="#D04847" transform="translate(130,232)"/>
<path d="M0 0 C2 2 2 2 2 9 C-6.91 8.67 -15.82 8.34 -25 8 C-25 7.01 -25 6.02 -25 5 C-18.59233959 3.16707586 -13.58723293 2.95440747 -7 4 C-7 4.99 -7 5.98 -7 7 C-6.01 7 -5.02 7 -4 7 C-3.896875 6.21625 -3.79375 5.4325 -3.6875 4.625 C-3 2 -3 2 0 0 Z " fill="#D23433" transform="translate(157,243)"/>
<path d="M0 0 C1.1549921 0.73581742 2.29874185 1.48930039 3.4375 2.25 C4.07558594 2.66765625 4.71367188 3.0853125 5.37109375 3.515625 C7.29902057 5.27248877 7.61479436 6.46089803 8 9 C9.65 8.67 11.3 8.34 13 8 C11.8125 10.5 11.8125 10.5 10 13 C7.3125 13.3125 7.3125 13.3125 5 13 C4.9175 13.61875 4.835 14.2375 4.75 14.875 C4 17 4 17 1.9375 18.25 C1.298125 18.4975 0.65875 18.745 0 19 C-1.2077558 15.37673261 -0.54311128 14.35853631 1 11 C0.01 11 -0.98 11 -2 11 C-2 9.35 -2 7.7 -2 6 C-1.67 6 -1.34 6 -1 6 C-0.67 4.02 -0.34 2.04 0 0 Z " fill="#E43330" transform="translate(109,239)"/>
<path d="M0 0 C0.33 0 0.66 0 1 0 C4.01875601 12.91057257 2.46300736 22.40021874 -1 35 C-3.1519437 31.77208445 -3.20086443 30.71599191 -3 27 C-3.66 27 -4.32 27 -5 27 C-5.33 28.98 -5.66 30.96 -6 33 C-7.485 33.495 -7.485 33.495 -9 34 C-8.79503906 33.29617188 -8.59007812 32.59234375 -8.37890625 31.8671875 C-6.20709919 23.90735874 -5.3531488 16.23202033 -5 8 C-4.67 8 -4.34 8 -4 8 C-3.67 12.95 -3.34 17.9 -3 23 C-2.01 23 -1.02 23 0 23 C0 15.41 0 7.82 0 0 Z " fill="#D07476" transform="translate(173,238)"/>
<path d="M0 0 C0 0.33 0 0.66 0 1 C-0.62455078 0.98428955 -1.24910156 0.9685791 -1.89257812 0.95239258 C-4.76162417 0.88947956 -7.63052442 0.85083269 -10.5 0.8125 C-11.48226562 0.78736328 -12.46453125 0.76222656 -13.4765625 0.73632812 C-19.76708648 0.67342289 -24.24604776 1.45996703 -30 4 C-31.65672637 4.37966646 -33.32070245 4.73760976 -35 5 C-35.33 5.99 -35.66 6.98 -36 8 C-34.68 8.33 -33.36 8.66 -32 9 C-38.75 11.125 -38.75 11.125 -41 10 C-40.34 8.35 -39.68 6.7 -39 5 C-39.66 4.67 -40.32 4.34 -41 4 C-27.21195596 -2.04327037 -14.71412259 -3.57479768 0 0 Z " fill="#D67272" transform="translate(136,199)"/>
<path d="M0 0 C4.43090471 1.20842856 6.98112756 2.51668565 10 6 C9.01 7.65 8.02 9.3 7 11 C7.99 11.33 8.98 11.66 10 12 C9.34 12.33 8.68 12.66 8 13 C6.1875 12.109375 6.1875 12.109375 4 10.75 C-5.99018297 5.05037105 -15.74636408 4.4049075 -27 4 C-27 3.67 -27 3.34 -27 3 C-6.27659574 1.04255319 -6.27659574 1.04255319 2 6 C1.34 4.02 0.68 2.04 0 0 Z " fill="#DC6261" transform="translate(140,201)"/>
<path d="M0 0 C0.33 0 0.66 0 1 0 C2.00402444 9.92684566 2.38120698 19.86206345 2.66748047 29.83032227 C2.72298661 31.66810088 2.78527941 33.50568578 2.85400391 35.34301758 C2.95396682 38.02140785 3.03396513 40.699726 3.109375 43.37890625 C3.14359558 44.20072891 3.17781616 45.02255157 3.21307373 45.86927795 C3.26464844 48.17797852 3.26464844 48.17797852 3 52 C2.01 52.99 1.02 53.98 0 55 C0 36.85 0 18.7 0 0 Z " fill="#851E1D" transform="translate(83,228)"/>
<path d="M0 0 C0.86908814 3.03108169 1.15811109 5.80891089 1.24609375 8.95703125 C1.27896484 9.90513672 1.31183594 10.85324219 1.34570312 11.83007812 C1.40653709 13.80653477 1.46387157 15.78310246 1.51757812 17.75976562 C1.71219484 23.18332955 2.22965314 27.86097693 4 33 C2.35 33 0.7 33 -1 33 C-5.59225513 23.58997722 -5.59225513 23.58997722 -5 19 C-4.01 20.32 -3.02 21.64 -2 23 C-0.03177114 21.03177114 -0.33751619 17.65191291 0 15 C-0.66 15 -1.32 15 -2 15 C-2.05386629 12.87527424 -2.09273071 10.75016348 -2.125 8.625 C-2.14820312 7.44164062 -2.17140625 6.25828125 -2.1953125 5.0390625 C-2 2 -2 2 0 0 Z " fill="#C54B4D" transform="translate(72,245)"/>
<path d="M0 0 C0.33 0 0.66 0 1 0 C1 1.65 1 3.3 1 5 C1.99 5 2.98 5 4 5 C3.773125 6.0725 3.54625 7.145 3.3125 8.25 C2.95319525 12.56165697 3.45014486 12.83817962 6 16 C6.1875 19.25 6.1875 19.25 6 22 C5.67 21.01 5.34 20.02 5 19 C3.88625 19.020625 2.7725 19.04125 1.625 19.0625 C-2 19 -2 19 -4 18 C-2.83445193 11.9490696 -1.54656904 5.96533774 0 0 Z " fill="#BE3130" transform="translate(106,245)"/>
<path d="M0 0 C3.97915159 -0.02886984 7.95827653 -0.04675406 11.9375 -0.0625 C13.07380859 -0.07087891 14.21011719 -0.07925781 15.38085938 -0.08789062 C16.46044922 -0.09111328 17.54003906 -0.09433594 18.65234375 -0.09765625 C20.15269165 -0.10551147 20.15269165 -0.10551147 21.68334961 -0.11352539 C24 0 24 0 25 1 C25 3.31 25 5.62 25 8 C19.39 8 13.78 8 8 8 C8 9.98 8 11.96 8 14 C7.67 14 7.34 14 7 14 C7 11.69 7 9.38 7 7 C8.37285156 6.94392578 8.37285156 6.94392578 9.7734375 6.88671875 C10.96195312 6.82097656 12.15046875 6.75523437 13.375 6.6875 C14.55835938 6.62949219 15.74171875 6.57148438 16.9609375 6.51171875 C17.96382813 6.34285156 18.96671875 6.17398438 20 6 C20.66 5.01 21.32 4.02 22 3 C21.00033203 3.03480469 21.00033203 3.03480469 19.98046875 3.0703125 C13.08243263 3.20537894 6.73699852 2.45946583 0 1 C0 0.67 0 0.34 0 0 Z " fill="#A64147" transform="translate(418,228)"/>
<path d="M0 0 C0.33 0 0.66 0 1 0 C1 1.98 1 3.96 1 6 C2.98 6 4.96 6 7 6 C7 5.01 7 4.02 7 3 C11.75 3.75 11.75 3.75 14 6 C14.26991906 8.68839385 14.08737357 11.29141936 14 14 C13.01 14 12.02 14 11 14 C11 12.68 11 11.36 11 10 C7.04 10 3.08 10 -1 10 C-1.33 8.35 -1.66 6.7 -2 5 C-1.34 5 -0.68 5 0 5 C0 3.35 0 1.7 0 0 Z " fill="#972727" transform="translate(137,218)"/>
<path d="M0 0 C0.33 0 0.66 0 1 0 C1.04944066 4.64475959 1.08573863 9.28936596 1.10986328 13.93432617 C1.11992041 15.51443144 1.13356785 17.0945181 1.15087891 18.67456055 C1.17514022 20.9458475 1.18648582 23.21688836 1.1953125 25.48828125 C1.20563507 26.19463211 1.21595764 26.90098297 1.22659302 27.6287384 C1.22743775 31.32197792 1.10720523 32.83919216 -1 36 C-3.09539838 31.80920324 -2.1858582 26.34344852 -2.18530273 21.73364258 C-2.18748048 19.70567568 -2.20561582 17.67826062 -2.22460938 15.65039062 C-2.22654297 14.36712891 -2.22847656 13.08386719 -2.23046875 11.76171875 C-2.23457764 10.58569092 -2.23868652 9.40966309 -2.24291992 8.19799805 C-2.0034725 5.04571481 -1.34675084 2.8386185 0 0 Z " fill="#881C20" transform="translate(95,253)"/>
<path d="M0 0 C4.29 0 8.58 0 13 0 C12.39144973 3.04275136 11.77610498 6.00645224 11 9 C9.68 9 8.36 9 7 9 C6.67 9.66 6.34 10.32 6 11 C5.9071875 9.824375 5.9071875 9.824375 5.8125 8.625 C5.544375 7.75875 5.27625 6.8925 5 6 C2.52363988 4.62533375 2.52363988 4.62533375 0 4 C0 2.68 0 1.36 0 0 Z " fill="#ED5A49" transform="translate(111,238)"/>
<path d="M0 0 C17.34567599 0.03651721 17.34567599 0.03651721 24.0859375 5.1328125 C23.7559375 5.7928125 23.4259375 6.4528125 23.0859375 7.1328125 C22.4259375 7.1328125 21.7659375 7.1328125 21.0859375 7.1328125 C21.0859375 6.4728125 21.0859375 5.8128125 21.0859375 5.1328125 C13.01406118 3.21713678 5.50924788 2.73447753 -2.9140625 2.1328125 C-2.9140625 13.3528125 -2.9140625 24.5728125 -2.9140625 36.1328125 C-3.2440625 36.1328125 -3.5740625 36.1328125 -3.9140625 36.1328125 C-3.93871348 31.16658901 -3.95689899 26.20040084 -3.96899414 21.23413086 C-3.9740344 19.54336934 -3.98086655 17.85261221 -3.98950195 16.16186523 C-4.00158107 13.73680543 -4.00729373 11.31180306 -4.01171875 8.88671875 C-4.01688004 8.12629776 -4.02204132 7.36587677 -4.02735901 6.58241272 C-4.02755488 4.7654868 -3.97603527 2.94868123 -3.9140625 1.1328125 C-2.9140625 0.1328125 -2.9140625 0.1328125 0 0 Z " fill="#BB7375" transform="translate(384.9140625,227.8671875)"/>
<path d="M0 0 C1.12894876 0.93274109 2.25300876 1.87140122 3.375 2.8125 C4.00148437 3.33457031 4.62796875 3.85664063 5.2734375 4.39453125 C7 6 7 6 9 9 C8.01 9 7.02 9 6 9 C6 9.99 6 10.98 6 12 C4 11 4 11 2 9 C1.01 10.485 1.01 10.485 0 12 C-0.99 11.67 -1.98 11.34 -3 11 C-2.67 12.65 -2.34 14.3 -2 16 C-2.66 15.67 -3.32 15.34 -4 15 C-4 11.7 -4 8.4 -4 5 C-6.64 5 -9.28 5 -12 5 C-12 4.67 -12 4.34 -12 4 C-6.555 3.505 -6.555 3.505 -1 3 C-0.67 2.01 -0.34 1.02 0 0 Z " fill="#BB6668" transform="translate(138,212)"/>
<path d="M0 0 C2 1 4 2 6 3 C6.33 2.01 6.66 1.02 7 0 C7.66 0.33 8.32 0.66 9 1 C9 3.97 9 6.94 9 10 C4.545 11.485 4.545 11.485 0 13 C0 8.71 0 4.42 0 0 Z " fill="#A72E2E" transform="translate(403,242)"/>
<path d="M0 0 C2.97 0 5.94 0 9 0 C9.33 1.32 9.66 2.64 10 4 C10.99 4.33 11.98 4.66 13 5 C12.01 5 11.02 5 10 5 C10 5.99 10 6.98 10 8 C6.52674819 9.1577506 3.63932552 9.06866652 0 9 C0 6.03 0 3.06 0 0 Z M6 3 C7 6 7 6 7 6 Z " fill="#E08686" transform="translate(142,238)"/>
<path d="M0 0 C0.74362793 0.01047363 1.48725586 0.02094727 2.25341797 0.03173828 C3.46191406 0.04140625 3.46191406 0.04140625 4.69482422 0.05126953 C5.95746094 0.07640625 5.95746094 0.07640625 7.24560547 0.10205078 C8.51984375 0.11558594 8.51984375 0.11558594 9.81982422 0.12939453 C11.9202043 0.15299431 14.02043991 0.18886595 16.12060547 0.22705078 C16.45060547 1.21705078 16.78060547 2.20705078 17.12060547 3.22705078 C16.46060547 3.22705078 15.80060547 3.22705078 15.12060547 3.22705078 C14.98783203 3.79939453 14.85505859 4.37173828 14.71826172 4.96142578 C14.1268023 7.20355953 13.38771693 9.31284697 12.55810547 11.47705078 C12.28869141 12.18345703 12.01927734 12.88986328 11.74169922 13.61767578 C11.53673828 14.14876953 11.33177734 14.67986328 11.12060547 15.22705078 C10.79060547 15.22705078 10.46060547 15.22705078 10.12060547 15.22705078 C10.14123047 14.27830078 10.16185547 13.32955078 10.18310547 12.35205078 C10.34612373 9.32038795 10.34612373 9.32038795 9.12060547 7.22705078 C9.78060547 7.22705078 10.44060547 7.22705078 11.12060547 7.22705078 C11.45060547 5.57705078 11.78060547 3.92705078 12.12060547 2.22705078 C7.17060547 2.55705078 2.22060547 2.88705078 -2.87939453 3.22705078 C-2.87939453 5.53705078 -2.87939453 7.84705078 -2.87939453 10.22705078 C-3.53939453 9.89705078 -4.19939453 9.56705078 -4.87939453 9.22705078 C-3.90660661 0.47195949 -3.90660661 0.47195949 0 0 Z " fill="#D58B89" transform="translate(111.87939453125,235.77294921875)"/>
<path d="M0 0 C6.93 0.495 6.93 0.495 14 1 C14 2.98 14 4.96 14 7 C9.38 7 4.76 7 0 7 C0.66 6.67 1.32 6.34 2 6 C1.34 4.02 0.68 2.04 0 0 Z " fill="#A12024" transform="translate(426,243)"/>
<path d="M0 0 C2.22574335 0.22451458 4.45581519 0.40782878 6.6875 0.5625 C7.86699219 0.64628906 9.04648438 0.73007812 10.26171875 0.81640625 C11.61716797 0.90728516 11.61716797 0.90728516 13 1 C11.02 1.99 11.02 1.99 9 3 C9.33 3.99 9.66 4.98 10 6 C7.37405216 5.8863485 4.74988453 5.75960946 2.125 5.625 C1.37863281 5.5940625 0.63226563 5.563125 -0.13671875 5.53125 C-5.7734375 5.2265625 -5.7734375 5.2265625 -8 3 C-7.67 2.01 -7.34 1.02 -7 0 C-4.05610218 -1.17755913 -3.10046087 -1.03348696 0 0 Z " fill="#C42B2D" transform="translate(115,300)"/>
<path d="M0 0 C0.66 0 1.32 0 2 0 C2.33 10.89 2.66 21.78 3 33 C4.65 33.33 6.3 33.66 8 34 C8 34.33 8 34.66 8 35 C5.36 35 2.72 35 0 35 C0 23.45 0 11.9 0 0 Z " fill="#98383F" transform="translate(348,229)"/>
<path d="M0 0 C1.65 0 3.3 0 5 0 C5.33 0.66 5.66 1.32 6 2 C5.34 2.66 4.68 3.32 4 4 C3.67043065 5.97760261 3.67043065 5.97760261 3.68115234 8.26611328 C3.66128265 9.14687531 3.64141296 10.02763733 3.62094116 10.93508911 C3.60938995 11.88721283 3.59783875 12.83933655 3.5859375 13.8203125 C3.56657135 14.79410858 3.5472052 15.76790466 3.5272522 16.77120972 C3.46735442 19.88905003 3.42103029 23.00692706 3.375 26.125 C3.33682961 28.23569341 3.29777844 30.34637108 3.2578125 32.45703125 C3.16164473 37.63788144 3.07662736 42.81882597 3 48 C2.67 48 2.34 48 2 48 C1.97494385 47.11441406 1.9498877 46.22882813 1.92407227 45.31640625 C1.32816388 22.64095722 1.32816388 22.64095722 0 0 Z " fill="#9C2A28" transform="translate(83,224)"/>
<path d="M0 0 C1.20959584 3.62878753 0.65839734 5.1543797 -0.3125 8.8125 C-0.57675781 9.82957031 -0.84101562 10.84664062 -1.11328125 11.89453125 C-2 15 -2 15 -3.06640625 17.89453125 C-4.16630973 21.55320601 -4.44871684 25.08491215 -4.625 28.875 C-4.66367188 29.56335938 -4.70234375 30.25171875 -4.7421875 30.9609375 C-4.83548166 32.64023246 -4.91878238 34.32007767 -5 36 C-5.66 36 -6.32 36 -7 36 C-7.48513836 22.84736014 -5.93692289 11.93411911 0 0 Z " fill="#C96163" transform="translate(72,225)"/>
<path d="M0 0 C7.06608191 -0.13794954 13.97360585 0.25194283 21 1 C20.4453125 2.953125 20.4453125 2.953125 19 5 C15.7421875 5.609375 15.7421875 5.609375 11.875 5.75 C10.59367187 5.80671875 9.31234375 5.8634375 7.9921875 5.921875 C6.51105469 5.96054688 6.51105469 5.96054688 5 6 C5 5.34 5 4.68 5 4 C5.66 4 6.32 4 7 4 C7 3.34 7 2.68 7 2 C4.69 2.33 2.38 2.66 0 3 C0 2.01 0 1.02 0 0 Z " fill="#AC1E25" transform="translate(419,230)"/>
<path d="M0 0 C4 2 4 2 5 3 C5.09886353 4.62252492 5.12971167 6.24947273 5.125 7.875 C5.12757813 8.75929687 5.13015625 9.64359375 5.1328125 10.5546875 C5 13 5 13 4 16 C2.68 16.33 1.36 16.66 0 17 C0 11.39 0 5.78 0 0 Z " fill="#CB3434" transform="translate(169,245)"/>
<path d="M0 0 C-0.66 1.65 -1.32 3.3 -2 5 C-1.34 5.33 -0.68 5.66 0 6 C-2.47692259 8.28639008 -3.70466178 8.97637294 -7.125 9.25 C-10 9 -10 9 -12 8 C-10.01351708 2.43784783 -5.71424233 0 0 0 Z " fill="#D93B39" transform="translate(97,204)"/>
<path d="M0 0 C0.33 1.32 0.66 2.64 1 4 C-4.74887005 7.77782889 -9.18637227 8.13360054 -16 8 C-16 6.68 -16 5.36 -16 4 C-15.175 3.896875 -14.35 3.79375 -13.5 3.6875 C-10.01644699 3.00323066 -7.0101036 1.9478908 -3.734375 0.62109375 C-2 0 -2 0 0 0 Z " fill="#D9554D" transform="translate(116,199)"/>
<path d="M0 0 C2.31 0.66 4.62 1.32 7 2 C7 2.66 7 3.32 7 4 C9.31 4.66 11.62 5.32 14 6 C14 6.33 14 6.66 14 7 C7.14975385 8.37004923 0.85024615 8.37004923 -6 7 C-5.34 6.34 -4.68 5.68 -4 5 C-2.68 5 -1.36 5 0 5 C0 3.35 0 1.7 0 0 Z " fill="#A42629" transform="translate(388,257)"/>
<path d="M0 0 C3.96 0 7.92 0 12 0 C12.33 1.98 12.66 3.96 13 6 C9.80558545 7.05523357 7.9598546 6.97578115 4.8125 5.8125 C4.11769531 5.57144531 3.42289062 5.33039063 2.70703125 5.08203125 C1 4 1 4 0 0 Z " fill="#C32B2C" transform="translate(94,296)"/>
<path d="M0 0 C14.52 0 29.04 0 44 0 C44 0.33 44 0.66 44 1 C42.39318359 1.09087891 42.39318359 1.09087891 40.75390625 1.18359375 C39.35675609 1.26798537 37.95962143 1.35263406 36.5625 1.4375 C35.50192383 1.49647461 35.50192383 1.49647461 34.41992188 1.55664062 C30.91309581 1.47624438 30.91309581 1.47624438 28 3 C26.31391034 3.07205511 24.62499341 3.08386068 22.9375 3.0625 C22.01839844 3.05347656 21.09929687 3.04445313 20.15234375 3.03515625 C19.44207031 3.02355469 18.73179688 3.01195312 18 3 C18 2.34 18 1.68 18 1 C12.06 1 6.12 1 0 1 C0 0.67 0 0.34 0 0 Z " fill="#862122" transform="translate(88,295)"/>
<path d="M0 0 C0.66 0 1.32 0 2 0 C2.77842938 3.40562852 3.09978121 6.50765756 3 10 C2.360625 10.268125 1.72125 10.53625 1.0625 10.8125 C-1.33131686 11.88667752 -1.33131686 11.88667752 -2 15 C-2 14.34 -2 13.68 -2 13 C-2.99 12.67 -3.98 12.34 -5 12 C-4.34 10.02 -3.68 8.04 -3 6 C-2.34 6 -1.68 6 -1 6 C-0.67 4.02 -0.34 2.04 0 0 Z " fill="#C12E31" transform="translate(168,265)"/>
<path d="M0 0 C2.97 0.33 5.94 0.66 9 1 C9 5.11794597 8.98140052 5.52282663 6.59375 8.453125 C6.09746094 9.071875 5.60117188 9.690625 5.08984375 10.328125 C4.56519531 10.96234375 4.04054688 11.5965625 3.5 12.25 C2.97535156 12.8996875 2.45070313 13.549375 1.91015625 14.21875 C0.61541043 15.81952665 -0.69117578 17.41071344 -2 19 C-2.33 17.68 -2.66 16.36 -3 15 C-2.01 14.67 -1.02 14.34 0 14 C0 12.35 0 10.7 0 9 C0.639375 8.7525 1.27875 8.505 1.9375 8.25 C4.18741541 7.18437567 4.18741541 7.18437567 4.75 4.875 C4.8325 4.25625 4.915 3.6375 5 3 C3.35 2.67 1.7 2.34 0 2 C0 1.34 0 0.68 0 0 Z " fill="#BE555A" transform="translate(121,252)"/>
<path d="M0 0 C0.33 0 0.66 0 1 0 C1.33 2.64 1.66 5.28 2 8 C2.66 7.01 3.32 6.02 4 5 C4.99 5.33 5.98 5.66 7 6 C5.73755365 7.65227538 4.46474765 9.29663951 3.1875 10.9375 C2.12595703 12.31228516 2.12595703 12.31228516 1.04296875 13.71484375 C-1 16 -1 16 -4 17 C-2.07289294 5.47835991 -2.07289294 5.47835991 0 0 Z " fill="#9A4D54" transform="translate(110,267)"/>
<path d="M0 0 C0.33 0 0.66 0 1 0 C1.06058594 1.28777344 1.12117187 2.57554687 1.18359375 3.90234375 C1.26798247 5.58074159 1.3526313 7.25912636 1.4375 8.9375 C1.47681641 9.78763672 1.51613281 10.63777344 1.55664062 11.51367188 C1.59853516 12.32255859 1.64042969 13.13144531 1.68359375 13.96484375 C1.72025146 14.7137085 1.75690918 15.46257324 1.79467773 16.23413086 C1.81771063 18.02461326 1.81771063 18.02461326 3 19 C5.52596259 19.23653523 8.03107207 19.42173692 10.5625 19.5625 C11.62887695 19.62727539 11.62887695 19.62727539 12.71679688 19.69335938 C14.47761912 19.79971777 16.2387832 19.90038846 18 20 C17.67 20.99 17.34 21.98 17 23 C14.35375716 22.85978195 11.70815422 22.71310224 9.0625 22.5625 C8.30775391 22.52318359 7.55300781 22.48386719 6.77539062 22.44335938 C1.11328125 22.11328125 1.11328125 22.11328125 0 21 C-0.08685603 19.43827255 -0.10702219 17.87270656 -0.09765625 16.30859375 C-0.09443359 15.36435547 -0.09121094 14.42011719 -0.08789062 13.44726562 C-0.07951172 12.45404297 -0.07113281 11.46082031 -0.0625 10.4375 C-0.05798828 9.44041016 -0.05347656 8.44332031 -0.04882812 7.41601562 C-0.03700007 4.94395151 -0.02051849 2.47200482 0 0 Z " fill="#CA6B70" transform="translate(130,232)"/>
<path d="M0 0 C5.875 0.875 5.875 0.875 7 2 C7.42407099 6.66478085 6.69319525 9.18464006 4 13 C3.34 12.34 2.68 11.68 2 11 C2 9.68 2 8.36 2 7 C1.34 6.34 0.68 5.68 0 5 C0 3.33333333 0 1.66666667 0 0 Z " fill="#F24138" transform="translate(328,234)"/>
<path d="M0 0 C2.97100833 2.78977035 5.19659143 5.58148913 7.3125 9.0625 C7.84488281 9.91972656 8.37726563 10.77695313 8.92578125 11.66015625 C10 14 10 14 9 17 C8.67 16.34 8.34 15.68 8 15 C5.97536745 14.34786708 5.97536745 14.34786708 4 14 C4 15.65 4 17.3 4 19 C3.34 18.67 2.68 18.34 2 18 C1.26924352 15.6859378 0.59861742 13.35171131 0 11 C1.32 11.33 2.64 11.66 4 12 C2.87204037 7.89100419 1.66489182 3.92438786 0 0 Z " fill="#D36E70" transform="translate(162,217)"/>
<path d="M0 0 C1.98 0.495 1.98 0.495 4 1 C4 1.66 4 2.32 4 3 C4.99 3.33 5.98 3.66 7 4 C6.8125 5.875 6.8125 5.875 6 8 C3.5 9.125 3.5 9.125 1 10 C0.67 10.66 0.34 11.32 0 12 C-1.88059033 10.11940967 -1.12361218 7.50109962 -1.1328125 5.0078125 C-1 3 -1 3 0 0 Z " fill="#AD2227" transform="translate(112,264)"/>
<path d="M0 0 C1.65 1.65 3.3 3.3 5 5 C3 7 3 7 0.3984375 7.1953125 C-0.59929687 7.17210937 -1.59703125 7.14890625 -2.625 7.125 C-4.12933594 7.09792969 -4.12933594 7.09792969 -5.6640625 7.0703125 C-6.43492187 7.04710937 -7.20578125 7.02390625 -8 7 C-6.45932457 3.60913845 -5.4891993 2.41748721 -2 1 C-1.34 0.67 -0.68 0.34 0 0 Z " fill="#B42B2C" transform="translate(135,298)"/>
<path d="M0 0 C3.96 0 7.92 0 12 0 C12.33 0.99 12.66 1.98 13 3 C10.23547967 4.38226016 7.9538637 4.09525387 4.875 4.0625 C3.77929688 4.05347656 2.68359375 4.04445312 1.5546875 4.03515625 C0.29011719 4.01775391 0.29011719 4.01775391 -1 4 C-0.67 2.68 -0.34 1.36 0 0 Z " fill="#9A1F24" transform="translate(126,212)"/>
<path d="M0 0 C2 2 2 2 2.125 5.625 C2.08375 6.73875 2.0425 7.8525 2 9 C2.66 9 3.32 9 4 9 C4.125 12.375 4.125 12.375 4 16 C3.34 16.66 2.68 17.32 2 18 C-1.04355214 13.84543397 -1.2502255 11.25202953 -0.6875 6.1875 C-0.56761719 5.02605469 -0.44773437 3.86460937 -0.32421875 2.66796875 C-0.21722656 1.78753906 -0.11023438 0.90710938 0 0 Z " fill="#D22D2C" transform="translate(68,251)"/>
<path d="M0 0 C0.99 0 1.98 0 3 0 C3.02915731 4.04165139 3.04685173 8.0832755 3.0625 12.125 C3.07087891 13.26710938 3.07925781 14.40921875 3.08789062 15.5859375 C3.09111328 16.69453125 3.09433594 17.803125 3.09765625 18.9453125 C3.10289307 19.96125488 3.10812988 20.97719727 3.11352539 22.02392578 C2.99652309 25.09114726 2.56776417 27.98633134 2 31 C1.67 31 1.34 31 1 31 C1 24.07 1 17.14 1 10 C0.67 10 0.34 10 0 10 C0 6.7 0 3.4 0 0 Z " fill="#912929" transform="translate(148,253)"/>
<path d="M0 0 C3.63 0 7.26 0 11 0 C10.125 2.5 10.125 2.5 8 5 C4.63291991 5.46087248 1.37885612 5.28526928 -2 5 C-1.34 4.34 -0.68 3.68 0 3 C0 2.01 0 1.02 0 0 Z " fill="#C72E2B" transform="translate(116,199)"/>
<path d="M0 0 C0.33 0 0.66 0 1 0 C1 1.98 1 3.96 1 6 C2.98 6 4.96 6 7 6 C7 5.01 7 4.02 7 3 C8.65 3.33 10.3 3.66 12 4 C11.01 4.495 11.01 4.495 10 5 C9.67 5.99 9.34 6.98 9 8 C7.02 8 5.04 8 3 8 C3.33 8.66 3.66 9.32 4 10 C2.35 10 0.7 10 -1 10 C-1.33 8.35 -1.66 6.7 -2 5 C-1.34 5 -0.68 5 0 5 C0 3.35 0 1.7 0 0 Z " fill="#972D2E" transform="translate(137,218)"/>
<path d="M0 0 C0.66 0 1.32 0 2 0 C1.34 1.98 0.68 3.96 0 6 C1.65 6 3.3 6 5 6 C5.33 7.32 5.66 8.64 6 10 C4.68 10.99 3.36 11.98 2 13 C2 11.68 2 10.36 2 9 C0.68 8.67 -0.64 8.34 -2 8 C-1.125 1.125 -1.125 1.125 0 0 Z " fill="#C3595A" transform="translate(336,238)"/>
<path d="M0 0 C0.66 0 1.32 0 2 0 C2 0.99 2 1.98 2 3 C2.66 3 3.32 3 4 3 C3.40353695 6.34019306 2.31705841 8.50470633 0 11 C-0.99 11 -1.98 11 -3 11 C-2.69078116 9.54096742 -2.37751201 8.08279278 -2.0625 6.625 C-1.88847656 5.81289063 -1.71445312 5.00078125 -1.53515625 4.1640625 C-1 2 -1 2 0 0 Z " fill="#B36166" transform="translate(327,256)"/>
<path d="M0 0 C2 1 4 2 6 3 C6.33 2.01 6.66 1.02 7 0 C7.66 0.33 8.32 0.66 9 1 C9 3.97 9 6.94 9 10 C8.34 10 7.68 10 7 10 C6.67 8.02 6.34 6.04 6 4 C4.35 4.66 2.7 5.32 1 6 C0.67 4.02 0.34 2.04 0 0 Z " fill="#9D252A" transform="translate(403,242)"/>
<path d="M0 0 C1.65 0.33 3.3 0.66 5 1 C5.66 3.64 6.32 6.28 7 9 C4.125 8.3125 4.125 8.3125 1 7 C-0.4375 4.5 -0.4375 4.5 -1 2 C-0.67 1.34 -0.34 0.68 0 0 Z " fill="#D74947" transform="translate(160,221)"/>
<path d="M0 0 C2 2 2 2 2 4 C0.845 3.690625 -0.31 3.38125 -1.5 3.0625 C-8.55670372 1.46539691 -15.79597415 1.33589323 -23 1 C-23 0.67 -23 0.34 -23 0 C-6.48176486 -1.39802771 -6.48176486 -1.39802771 0 0 Z " fill="#D77A78" transform="translate(136,204)"/>
<path d="M0 0 C2.8203125 0.0234375 2.8203125 0.0234375 6.125 0.375 C7.22070312 0.48585937 8.31640625 0.59671875 9.4453125 0.7109375 C10.28835938 0.80632812 11.13140625 0.90171875 12 1 C12 1.33 12 1.66 12 2 C9.03 2 6.06 2 3 2 C3 5.3 3 8.6 3 12 C2.34 12 1.68 12 1 12 C1 9.03 1 6.06 1 3 C0.01 2.67 -0.98 2.34 -2 2 C-1.34 1.34 -0.68 0.68 0 0 Z " fill="#9C2028" transform="translate(354,234)"/>
<path d="M0 0 C0.33 0 0.66 0 1 0 C1.02696365 1.79158489 1.04637917 3.58328473 1.0625 5.375 C1.07410156 6.37273437 1.08570313 7.37046875 1.09765625 8.3984375 C1 11 1 11 0 13 C1.32 13.33 2.64 13.66 4 14 C4 14.33 4 14.66 4 15 C1.69 15 -0.62 15 -3 15 C-2.35812082 9.86496656 -1.31727753 5.0056546 0 0 Z " fill="#CE645F" transform="translate(324,237)"/>
<path d="M0 0 C4.62 0 9.24 0 14 0 C14 1.32 14 2.64 14 4 C12.35 4.33 10.7 4.66 9 5 C9 4.34 9 3.68 9 3 C7.88625 3.061875 6.7725 3.12375 5.625 3.1875 C4.42875 3.125625 3.2325 3.06375 2 3 C1.34 2.01 0.68 1.02 0 0 Z " fill="#D65655" transform="translate(115,300)"/>
<path d="M0 0 C1.50433594 0.01353516 1.50433594 0.01353516 3.0390625 0.02734375 C3.80992187 0.03894531 4.58078125 0.05054688 5.375 0.0625 C5.705 1.7125 6.035 3.3625 6.375 5.0625 C5.715 5.0625 5.055 5.0625 4.375 5.0625 C4.375 4.0725 4.375 3.0825 4.375 2.0625 C0.745 2.0625 -2.885 2.0625 -6.625 2.0625 C-6.625 3.7125 -6.625 5.3625 -6.625 7.0625 C-7.285 6.7325 -7.945 6.4025 -8.625 6.0625 C-8.25 3.625 -8.25 3.625 -7.625 1.0625 C-4.98041621 -0.25979189 -2.94738699 -0.03427194 0 0 Z " fill="#D68D8D" transform="translate(333.625,230.9375)"/>
<path d="M0 0 C0.66 0.99 1.32 1.98 2 3 C2.99 3.33 3.98 3.66 5 4 C5 5.98 5 7.96 5 10 C2.69 9.01 0.38 8.02 -2 7 C-1.34 4.69 -0.68 2.38 0 0 Z " fill="#EA3E35" transform="translate(333,243)"/>
<path d="M0 0 C1.06723961 3.46222615 1.10173486 6.64039266 1.0625 10.25 C1.05347656 11.32765625 1.04445313 12.4053125 1.03515625 13.515625 C1.02355469 14.33546875 1.01195313 15.1553125 1 16 C0.01 15.67 -0.98 15.34 -2 15 C-2.05386629 12.87527424 -2.09273071 10.75016348 -2.125 8.625 C-2.14820312 7.44164062 -2.17140625 6.25828125 -2.1953125 5.0390625 C-2 2 -2 2 0 0 Z " fill="#D97071" transform="translate(72,245)"/>
<path d="M0 0 C2.475 0.495 2.475 0.495 5 1 C5.125 4.375 5.125 4.375 5 8 C4.34 8.66 3.68 9.32 3 10 C0 3.375 0 3.375 0 0 Z " fill="#CD312E" transform="translate(166,231)"/>
<path d="M0 0 C2.475 0.99 2.475 0.99 5 2 C3.70268494 4.89401051 2.62285333 7.16400267 0 9 C-2.67931112 9.55177892 -5.26287955 9.77564586 -8 10 C-7.67 9.34 -7.34 8.68 -7 8 C-5.02 8 -3.04 8 -1 8 C-1.020625 7.05125 -1.04125 6.1025 -1.0625 5.125 C-1 2 -1 2 0 0 Z " fill="#BB656B" transform="translate(92,214)"/>
<path d="M0 0 C1.08667969 0.29197266 1.08667969 0.29197266 2.1953125 0.58984375 C2.74960938 0.74582031 3.30390625 0.90179688 3.875 1.0625 C2.23330472 3.08304804 0.56588222 5.08293058 -1.125 7.0625 C-1.455 7.0625 -1.785 7.0625 -2.125 7.0625 C-2.125 5.0825 -2.125 3.1025 -2.125 1.0625 C-2.785 1.0625 -3.445 1.0625 -4.125 1.0625 C-4.125 1.7225 -4.125 2.3825 -4.125 3.0625 C-5.445 3.3925 -6.765 3.7225 -8.125 4.0625 C-8.125 3.4025 -8.125 2.7425 -8.125 2.0625 C-7.465 2.0625 -6.805 2.0625 -6.125 2.0625 C-6.125 1.4025 -6.125 0.7425 -6.125 0.0625 C-3.57797384 -1.21101308 -2.6967055 -0.73941925 0 0 Z " fill="#DC6C6B" transform="translate(88.125,211.9375)"/>
<path d="M0 0 C0.33 0 0.66 0 1 0 C1 1.65 1 3.3 1 5 C1.99 5 2.98 5 4 5 C3.125 9.75 3.125 9.75 2 12 C1.34 12 0.68 12 0 12 C-1.125 10.5 -1.125 10.5 -2 8 C-1.57598348 5.2226918 -0.81108065 2.70360217 0 0 Z " fill="#DA5952" transform="translate(106,245)"/>
<path d="M0 0 C2 2 2 2 2.125 5.125 C2.08375 6.07375 2.0425 7.0225 2 8 C-0.97 7.505 -0.97 7.505 -4 7 C-3.6875 4.625 -3.6875 4.625 -3 2 C-2.01 1.34 -1.02 0.68 0 0 Z " fill="#DA3430" transform="translate(157,243)"/>
<path d="M0 0 C0.99 0 1.98 0 3 0 C4.4783226 2.95664519 4.06032783 5.74229737 4 9 C1.36 9 -1.28 9 -4 9 C-4 8.01 -4 7.02 -4 6 C-1.69 6 0.62 6 3 6 C2.2575 5.071875 2.2575 5.071875 1.5 4.125 C0 2 0 2 0 0 Z " fill="#CB423F" transform="translate(156,233)"/>
<path d="M0 0 C0.99 0.33 1.98 0.66 3 1 C3 3.31 3 5.62 3 8 C2.38125 7.79375 1.7625 7.5875 1.125 7.375 C0.42375 7.25125 -0.2775 7.1275 -1 7 C-1.66 7.66 -2.32 8.32 -3 9 C-3 6.69 -3 4.38 -3 2 C-1.68 2.33 -0.36 2.66 1 3 C0.67 2.01 0.34 1.02 0 0 Z " fill="#BE4A4E" transform="translate(139,237)"/>
<path d="M0 0 C1.32 0.66 2.64 1.32 4 2 C3.67 4.31 3.34 6.62 3 9 C2.01 9.33 1.02 9.66 0 10 C-1.125 3.375 -1.125 3.375 0 0 Z " fill="#CF4343" transform="translate(71,233)"/>
<path d="M0 0 C2.375 -0.1875 2.375 -0.1875 5 0 C7 3 7 3 7 6 C4.07120629 5.37240135 1.63904371 4.41377341 -1 3 C-0.67 2.01 -0.34 1.02 0 0 Z " fill="#DB3735" transform="translate(135,201)"/>
<path d="M0 0 C-2.25740623 2.33524782 -4.2805761 4.18705073 -7 6 C-9.1875 5.625 -9.1875 5.625 -11 5 C-9.35 4.01 -7.7 3.02 -6 2 C-7.65 1.67 -9.3 1.34 -11 1 C-11 0.67 -11 0.34 -11 0 C-9.54263913 -0.19491452 -8.08405407 -0.38069358 -6.625 -0.5625 C-5.81289062 -0.66691406 -5.00078125 -0.77132813 -4.1640625 -0.87890625 C-2 -1 -2 -1 0 0 Z " fill="#BE5558" transform="translate(151,291)"/>
<path d="M0 0 C0 2.64 0 5.28 0 8 C-0.99 8 -1.98 8 -3 8 C-5 5 -5 5 -5 1 C-1.125 0 -1.125 0 0 0 Z " fill="#BB2B29" transform="translate(85,282)"/>
<path d="M0 0 C0.66 0 1.32 0 2 0 C2.77842938 3.40562852 3.09978121 6.50765756 3 10 C2.01 10.495 2.01 10.495 1 11 C-0.98362069 8.08291076 -0.9876191 6.87619096 -0.625 3.25 C-0.41875 2.1775 -0.2125 1.105 0 0 Z " fill="#CD3E40" transform="translate(168,265)"/>
<path d="M0 0 C1.32 0 2.64 0 4 0 C2.63016497 3.16115776 2.0109362 3.9927092 -1 6 C-3.91796875 6.1953125 -3.91796875 6.1953125 -7.1875 6.125 C-8.27417969 6.10695312 -9.36085938 6.08890625 -10.48046875 6.0703125 C-11.72763672 6.03550781 -11.72763672 6.03550781 -13 6 C-13 5.67 -13 5.34 -13 5 C-9.37 5 -5.74 5 -2 5 C-1.34 3.35 -0.68 1.7 0 0 Z " fill="#B4656D" transform="translate(371,248)"/>
<path d="M0 0 C0 0.66 0 1.32 0 2 C-0.99 2.495 -0.99 2.495 -2 3 C-2 3.99 -2 4.98 -2 6 C-4.64 6.33 -7.28 6.66 -10 7 C-3.18421053 0 -3.18421053 0 0 0 Z " fill="#D96868" transform="translate(95,204)"/>
<path d="M0 0 C0.66 0.33 1.32 0.66 2 1 C2 1.99 2 2.98 2 4 C2.66 4.33 3.32 4.66 4 5 C3.01 5 2.02 5 1 5 C1.495 6.051875 1.99 7.10375 2.5 8.1875 C3.82779788 11.25452609 4.30715006 13.62134936 4 17 C3.67 15.68 3.34 14.36 3 13 C2.34 13 1.68 13 1 13 C-0.625 10.5 -0.625 10.5 -2 8 C-1.34 8 -0.68 8 0 8 C0 5.36 0 2.72 0 0 Z " fill="#CA6468" transform="translate(79,278)"/>
<path d="M0 0 C0.66 0.33 1.32 0.66 2 1 C2 2.32 2 3.64 2 5 C4.31 5.33 6.62 5.66 9 6 C8.67 7.32 8.34 8.64 8 10 C8 9.01 8 8.02 8 7 C6.88625 7.020625 5.7725 7.04125 4.625 7.0625 C1 7 1 7 -1 6 C-0.67 4.02 -0.34 2.04 0 0 Z " fill="#BD7076" transform="translate(103,257)"/>
<path d="M0 0 C0.66 0 1.32 0 2 0 C2 0.66 2 1.32 2 2 C2.7425 2.28875 3.485 2.5775 4.25 2.875 C6.56739797 3.82302644 8.77917115 4.84845911 11 6 C11 6.66 11 7.32 11 8 C10.01 8 9.02 8 8 8 C7.67 8.66 7.34 9.32 7 10 C6.9071875 8.824375 6.9071875 8.824375 6.8125 7.625 C6.544375 6.75875 6.27625 5.8925 6 5 C3.52869082 3.84478498 3.52869082 3.84478498 1 3 C0.67 2.01 0.34 1.02 0 0 Z " fill="#ED473A" transform="translate(110,239)"/>
<path d="M0 0 C3.3 0 6.6 0 10 0 C10.33 1.32 10.66 2.64 11 4 C9.02 4.99 9.02 4.99 7 6 C6.67 5.01 6.34 4.02 6 3 C2.99152582 1.77479736 2.99152582 1.77479736 0 1 C0 0.67 0 0.34 0 0 Z " fill="#EB5852" transform="translate(328,233)"/>
<path d="M0 0 C1.65 0 3.3 0 5 0 C5.33 1.65 5.66 3.3 6 5 C5.01 5.33 4.02 5.66 3 6 C0.8125 4.5625 0.8125 4.5625 -1 3 C-0.67 2.01 -0.34 1.02 0 0 Z " fill="#D23537" transform="translate(154,213)"/>
<path d="M0 0 C-0.33 1.65 -0.66 3.3 -1 5 C-3.31 5 -5.62 5 -8 5 C-8 3.68 -8 2.36 -8 1 C-2.25 0 -2.25 0 0 0 Z " fill="#D44340" transform="translate(108,202)"/>
<path d="M0 0 C0 0.33 0 0.66 0 1 C-4.76307437 1.95261487 -9.1666528 2.08333357 -14 2 C-14.33 1.34 -14.66 0.68 -15 0 C-9.65370398 -1.0024305 -5.37625234 -0.84888195 0 0 Z " fill="#B05B5A" transform="translate(402,263)"/>
<path d="M0 0 C1.9078584 3.1749094 2.1609041 5.10585211 1.625 8.75 C1.51414062 9.54921875 1.40328125 10.3484375 1.2890625 11.171875 C1.19367188 11.77515625 1.09828125 12.3784375 1 13 C0.34 13 -0.32 13 -1 13 C-2.20577428 8.05632546 -1.6290678 4.79137588 0 0 Z " fill="#A64953" transform="translate(376,235)"/>
<path d="M0 0 C2.2477975 2.05233685 3.0022242 3.00667261 4 6 C4.068991 8.06145107 4.08467727 10.12501401 4.0625 12.1875 C4.05347656 13.27417969 4.04445313 14.36085937 4.03515625 15.48046875 C4.02355469 16.31191406 4.01195312 17.14335937 4 18 C3.67 18 3.34 18 3 18 C2.96261719 17.32453125 2.92523438 16.6490625 2.88671875 15.953125 C2.82097656 15.06109375 2.75523437 14.1690625 2.6875 13.25 C2.62949219 12.36828125 2.57148438 11.4865625 2.51171875 10.578125 C1.93333132 7.66411201 0.82009459 6.29490188 -1 4 C-0.6875 1.75 -0.6875 1.75 0 0 Z " fill="#B36C6F" transform="translate(409,235)"/>
<path d="M0 0 C1.18613892 0.00785522 1.18613892 0.00785522 2.39624023 0.01586914 C3.67724609 0.02070313 3.67724609 0.02070313 4.98413086 0.02563477 C5.88196289 0.03401367 6.77979492 0.04239258 7.70483398 0.05102539 C8.6065332 0.05553711 9.50823242 0.06004883 10.43725586 0.06469727 C12.67234712 0.07652315 14.90730835 0.09300319 17.14233398 0.11352539 C17.14233398 0.44352539 17.14233398 0.77352539 17.14233398 1.11352539 C11.53233398 1.11352539 5.92233398 1.11352539 0.14233398 1.11352539 C-0.18766602 2.43352539 -0.51766602 3.75352539 -0.85766602 5.11352539 C-1.51766602 3.79352539 -2.17766602 2.47352539 -2.85766602 1.11352539 C-1.85766602 0.11352539 -1.85766602 0.11352539 0 0 Z " fill="#8C191D" transform="translate(96.857666015625,211.886474609375)"/>
<path d="M0 0 C0.33 0.99 0.66 1.98 1 3 C1.66 3.33 2.32 3.66 3 4 C0.36 4 -2.28 4 -5 4 C-5 3.67 -5 3.34 -5 3 C-7.64 2.67 -10.28 2.34 -13 2 C-13 1.67 -13 1.34 -13 1 C-6.565 0.505 -6.565 0.505 0 0 Z " fill="#912327" transform="translate(146,287)"/>
<path d="M0 0 C0 3.83764027 -1.26535335 5.11486085 -3.5 8.1875 C-4.1496875 9.08855469 -4.799375 9.98960937 -5.46875 10.91796875 C-5.9740625 11.60503906 -6.479375 12.29210937 -7 13 C-7.33 11.68 -7.66 10.36 -8 9 C-7.34 9 -6.68 9 -6 9 C-5.34 7.35 -4.68 5.7 -4 4 C-3.34 4 -2.68 4 -2 4 C-2 3.01 -2 2.02 -2 1 C-1.34 0.67 -0.68 0.34 0 0 Z " fill="#C87071" transform="translate(169,276)"/>
<path d="M0 0 C0.185625 0.9590625 0.185625 0.9590625 0.375 1.9375 C0.684375 2.9584375 0.684375 2.9584375 1 4 C1.66 4.33 2.32 4.66 3 5 C2.34 6.65 1.68 8.3 1 10 C0.34 9.67 -0.32 9.34 -1 9 C-1 8.34 -1 7.68 -1 7 C-1.66 7 -2.32 7 -3 7 C-1.125 1.125 -1.125 1.125 0 0 Z " fill="#D35C59" transform="translate(163,273)"/>
<path d="M0 0 C2.97 0.33 5.94 0.66 9 1 C9 2.32 9 3.64 9 5 C8.01 5.66 7.02 6.32 6 7 C5.34 6.67 4.68 6.34 4 6 C4.33 5.01 4.66 4.02 5 3 C3.35 2.67 1.7 2.34 0 2 C0 1.34 0 0.68 0 0 Z " fill="#DB8283" transform="translate(121,252)"/>
<path d="M0 0 C0.99 0.66 1.98 1.32 3 2 C1.7874262 5.72433382 0.49140021 9.37802806 -1 13 C-1.33 13 -1.66 13 -2 13 C-1.979375 12.05125 -1.95875 11.1025 -1.9375 10.125 C-1.77448174 7.09333717 -1.77448174 7.09333717 -3 5 C-2.34 5 -1.68 5 -1 5 C-0.67 3.35 -0.34 1.7 0 0 Z " fill="#DC7469" transform="translate(124,238)"/>
<path d="M0 0 C0.185625 0.9590625 0.185625 0.9590625 0.375 1.9375 C0.684375 2.9584375 0.684375 2.9584375 1 4 C1.66 4.33 2.32 4.66 3 5 C2.67 5.33 2.34 5.66 2 6 C2.66 6.66 3.32 7.32 4 8 C3.34 8.66 2.68 9.32 2 10 C-0.125 9.625 -0.125 9.625 -2 9 C-2.20140476 5.37471432 -1.85776765 3.13498292 0 0 Z " fill="#E03F3C" transform="translate(327,233)"/>
<path d="M0 0 C2.97 0 5.94 0 9 0 C9 0.99 9 1.98 9 3 C7.906875 2.979375 6.81375 2.95875 5.6875 2.9375 C2.05615809 2.81455548 2.05615809 2.81455548 -1 4 C-0.67 2.68 -0.34 1.36 0 0 Z " fill="#DB413B" transform="translate(133,233)"/>
<path d="M0 0 C1.875 1.1875 1.875 1.1875 2.875 3.1875 C1.885 3.1875 0.895 3.1875 -0.125 3.1875 C-0.125 4.1775 -0.125 5.1675 -0.125 6.1875 C-2.87883923 4.81058038 -3.63983101 2.82029958 -5.125 0.1875 C-2.125 -0.8125 -2.125 -0.8125 0 0 Z " fill="#AE5454" transform="translate(144.125,217.8125)"/>
<path d="M0 0 C2.46800047 1.15173355 4.04783565 2.04783565 6 4 C5.67 4.99 5.34 5.98 5 7 C4.67 6.67 4.34 6.34 4 6 C3.67 6.66 3.34 7.32 3 8 C0.5625 7.625 0.5625 7.625 -2 7 C-2.33 6.34 -2.66 5.68 -3 5 C-0.525 5.495 -0.525 5.495 2 6 C1.34 4.02 0.68 2.04 0 0 Z " fill="#D75655" transform="translate(140,201)"/>
<path d="M0 0 C0.66 0.33 1.32 0.66 2 1 C2 2.98 2 4.96 2 7 C2.66 7.33 3.32 7.66 4 8 C1 8 1 8 -2 7 C-1.34 4.69 -0.68 2.38 0 0 Z " fill="#EA4534" transform="translate(326,243)"/>
<path d="M0 0 C2.22574335 0.22451458 4.45581519 0.40782878 6.6875 0.5625 C7.86699219 0.64628906 9.04648438 0.73007812 10.26171875 0.81640625 C11.61716797 0.90728516 11.61716797 0.90728516 13 1 C13 1.33 13 1.66 13 2 C10.41638482 2.05407567 7.83390745 2.093707 5.25 2.125 C4.52039063 2.14175781 3.79078125 2.15851563 3.0390625 2.17578125 C-0.8044624 2.21072239 -3.74606772 2.17499684 -7 0 C-3.98968256 -0.93423645 -3.13349732 -1.04449911 0 0 Z " fill="#AD2B2B" transform="translate(115,300)"/>
<path d="M0 0 C1.65 1.65 3.3 3.3 5 5 C4.54625 5.4125 4.0925 5.825 3.625 6.25 C1.67082177 8.19019186 1.67082177 8.19019186 0 12 C0 8.04 0 4.08 0 0 Z " fill="#CE8888" transform="translate(138,212)"/>
<path d="M0 0 C0.33 1.32 0.66 2.64 1 4 C0.34 4 -0.32 4 -1 4 C-1 4.99 -1 5.98 -1 7 C-2.65 7.33 -4.3 7.66 -6 8 C-4.02 5.36 -2.04 2.72 0 0 Z " fill="#C26166" transform="translate(159,280)"/>
<path d="M0 0 C0.99 0 1.98 0 3 0 C3.1875 3.3125 3.1875 3.3125 3 7 C2.01 7.99 1.02 8.98 0 10 C0 6.7 0 3.4 0 0 Z " fill="#821B1C" transform="translate(148,253)"/>
<path d="M0 0 C2.97 0.495 2.97 0.495 6 1 C6.33 2.32 6.66 3.64 7 5 C6.01 5 5.02 5 4 5 C4 4.34 4 3.68 4 3 C2.68 3 1.36 3 0 3 C0 2.01 0 1.02 0 0 Z " fill="#F64A44" transform="translate(328,234)"/>
<path d="M0 0 C0.99 0 1.98 0 3 0 C1.7508258 3.45925163 0.32472205 6.14693203 -2 9 C-2 6.69 -2 4.38 -2 2 C-1.34 2 -0.68 2 0 2 C0 1.34 0 0.68 0 0 Z " fill="#D36462" transform="translate(77,226)"/>
<path d="M0 0 C1.65 0.33 3.3 0.66 5 1 C4.34 2.32 3.68 3.64 3 5 C-1.455 4.01 -1.455 4.01 -6 3 C-6 2.67 -6 2.34 -6 2 C-4.02 2 -2.04 2 0 2 C0 1.34 0 0.68 0 0 Z " fill="#A5464B" transform="translate(92,296)"/>
<path d="M0 0 C0.99 0.33 1.98 0.66 3 1 C3.33 2.98 3.66 4.96 4 7 C2.68 7 1.36 7 0 7 C0 4.69 0 2.38 0 0 Z " fill="#D53735" transform="translate(72,271)"/>
<path d="M0 0 C2.45823172 3.68734758 3.01242616 6.69699971 4 11 C3.01 11.495 3.01 11.495 2 12 C-0.60018816 8.09971775 -0.15085514 4.52565431 0 0 Z " fill="#D56C6F" transform="translate(73,263)"/>
<path d="M0 0 C0.99 0 1.98 0 3 0 C3 2.31 3 4.62 3 7 C2.01 7 1.02 7 0 7 C0 4.69 0 2.38 0 0 Z " fill="#BE4A4B" transform="translate(144,239)"/>
<path d="M0 0 C1.21236328 0.01353516 1.21236328 0.01353516 2.44921875 0.02734375 C3.37154297 0.04474609 3.37154297 0.04474609 4.3125 0.0625 C4.3125 0.3925 4.3125 0.7225 4.3125 1.0625 C3.054375 1.165625 1.79625 1.26875 0.5 1.375 C-2.82707417 1.75859156 -2.82707417 1.75859156 -5.5625 3.625 C-5.93375 4.099375 -6.305 4.57375 -6.6875 5.0625 C-7.3475 5.0625 -8.0075 5.0625 -8.6875 5.0625 C-8.375 3.125 -8.375 3.125 -7.6875 1.0625 C-4.80538698 0.10179566 -2.98899956 -0.04331883 0 0 Z " fill="#656365" transform="translate(243.6875,235.9375)"/>
<path d="M0 0 C1.65 0 3.3 0 5 0 C5.33 0.66 5.66 1.32 6 2 C5.01 2.99 4.02 3.98 3 5 C2.01 4.67 1.02 4.34 0 4 C0 2.68 0 1.36 0 0 Z " fill="#9D3336" transform="translate(83,224)"/>
<path d="M0 0 C3.96 0 7.92 0 12 0 C12 0.66 12 1.32 12 2 C7.545 2.495 7.545 2.495 3 3 C3 2.34 3 1.68 3 1 C2.01 0.67 1.02 0.34 0 0 Z " fill="#A62925" transform="translate(94,296)"/>
<path d="M0 0 C0.50991593 2.03966372 1.01844869 4.07840692 1.5 6.125 C1.95138724 8.07081859 1.95138724 8.07081859 3 10 C2.34 10 1.68 10 1 10 C0.67 10.66 0.34 11.32 0 12 C-1.88059033 10.11940967 -1.12361218 7.50109962 -1.1328125 5.0078125 C-1 3 -1 3 0 0 Z " fill="#95191E" transform="translate(112,264)"/>
<path d="M0 0 C0.66 0 1.32 0 2 0 C1.1875 2.9375 1.1875 2.9375 0 6 C-0.99 6.33 -1.98 6.66 -3 7 C-2.25 2.25 -2.25 2.25 0 0 Z " fill="#4B4B4B" transform="translate(260,248)"/>
<path d="M0 0 C2 1 4 2 6 3 C6.33 2.34 6.66 1.68 7 1 C7 1.99 7 2.98 7 4 C5.02 4.66 3.04 5.32 1 6 C0.67 4.02 0.34 2.04 0 0 Z " fill="#992121" transform="translate(403,242)"/>
<path d="M0 0 C2.94586829 4.41880243 3.0985616 6.67767339 3 12 C0.50494038 9.50494038 0.64051624 8.32671112 0.375 4.875 C0.30023438 3.96492187 0.22546875 3.05484375 0.1484375 2.1171875 C0.09945312 1.41851562 0.05046875 0.71984375 0 0 Z " fill="#C25354" transform="translate(166,234)"/>
<path d="M0 0 C0.66 0 1.32 0 2 0 C1.34 1.98 0.68 3.96 0 6 C0.66 6.33 1.32 6.66 2 7 C0.68 7.33 -0.64 7.66 -2 8 C-1.125 1.125 -1.125 1.125 0 0 Z " fill="#DA6969" transform="translate(336,238)"/>
<path d="M0 0 C2.475 0.495 2.475 0.495 5 1 C5.33 2.98 5.66 4.96 6 7 C5.34 6.34 4.68 5.68 4 5 C1.93125966 4.3574765 1.93125966 4.3574765 0 4 C0 2.68 0 1.36 0 0 Z " fill="#E8797B" transform="translate(135,235)"/>
<path d="M0 0 C2.97 0.33 5.94 0.66 9 1 C9 1.66 9 2.32 9 3 C6.1875 3.1875 6.1875 3.1875 3 3 C2.01 2.01 1.02 1.02 0 0 Z " fill="#991C22" transform="translate(138,225)"/>
<path d="M0 0 C0.99 0 1.98 0 3 0 C3.33 2.31 3.66 4.62 4 7 C2.68 6.67 1.36 6.34 0 6 C0.66 4.35 1.32 2.7 2 1 C1.34 0.67 0.68 0.34 0 0 Z " fill="#E14C4F" transform="translate(95,203)"/>
<path d="M0 0 C2.64 0.33 5.28 0.66 8 1 C7.67 1.66 7.34 2.32 7 3 C3.9375 3.625 3.9375 3.625 1 4 C0.67 2.68 0.34 1.36 0 0 Z " fill="#DF2D2D" transform="translate(116,199)"/>
<path d="M0 0 C1.42944945 2.35438733 2.08661261 3.48032433 1.625 6.25 C1.41875 6.8275 1.2125 7.405 1 8 C0.34 8 -0.32 8 -1 8 C-1 7.01 -1 6.02 -1 5 C-1.66 4.34 -2.32 3.68 -3 3 C-2.34 3 -1.68 3 -1 3 C-0.67 2.01 -0.34 1.02 0 0 Z " fill="#C73334" transform="translate(78,278)"/>
<path d="M0 0 C0.66 0 1.32 0 2 0 C1.34 1.65 0.68 3.3 0 5 C0.66 5.33 1.32 5.66 2 6 C0.68 6 -0.64 6 -2 6 C-2.33 4.68 -2.66 3.36 -3 2 C-2.01 2 -1.02 2 0 2 C0 1.34 0 0.68 0 0 Z " fill="#CE3235" transform="translate(95,204)"/>
<path d="M0 0 C0.66 0 1.32 0 2 0 C2.33 1.65 2.66 3.3 3 5 C1.35 5.33 -0.3 5.66 -2 6 C-2 5.34 -2 4.68 -2 4 C-1.34 4 -0.68 4 0 4 C0 2.68 0 1.36 0 0 Z " fill="#C9363B" transform="translate(160,280)"/>
<path d="M0 0 C0.66 0 1.32 0 2 0 C2 0.66 2 1.32 2 2 C3.65 2.33 5.3 2.66 7 3 C7 3.66 7 4.32 7 5 C4.69 4.67 2.38 4.34 0 4 C0 2.68 0 1.36 0 0 Z " fill="#B31E25" transform="translate(105,258)"/>
<path d="M0 0 C0.99 0 1.98 0 3 0 C3 1.98 3 3.96 3 6 C1.68 5.01 0.36 4.02 -1 3 C-0.67 2.01 -0.34 1.02 0 0 Z " fill="#DE393A" transform="translate(335,247)"/>
<path d="M0 0 C2.9719385 1.12451727 5.33440687 2.22293791 8 4 C7.67 4.66 7.34 5.32 7 6 C6.34 6 5.68 6 5 6 C5 5.34 5 4.68 5 4 C4.360625 3.896875 3.72125 3.79375 3.0625 3.6875 C2.381875 3.460625 1.70125 3.23375 1 3 C0.67 2.01 0.34 1.02 0 0 Z " fill="#AF6569" transform="translate(401,229)"/>
<path d="M0 0 C1.485 0.99 1.485 0.99 3 2 C3.1875 4.625 3.1875 4.625 3 7 C1.68 6.34 0.36 5.68 -1 5 C-0.67 3.35 -0.34 1.7 0 0 Z " fill="#D02627" transform="translate(72,228)"/>
</svg>
